<mxfile host="app.diagrams.net" modified="2021-06-26T12:04:27.816Z" agent="5.0 (Windows NT 10.0; Win64; x64) AppleWebKit/537.36 (KHTML, like Gecko) Chrome/91.0.4472.114 Safari/537.36" etag="ehqwXNMQCLpEf8RlFcFB" version="14.8.1" type="github" pages="2">
  <diagram id="R2lEEEUBdFMjLlhIrx00" name="Page-1">
    <mxGraphModel dx="4063" dy="2077" grid="1" gridSize="10" guides="1" tooltips="1" connect="1" arrows="1" fold="1" page="1" pageScale="1" pageWidth="1654" pageHeight="2336" math="0" shadow="0" extFonts="Permanent Marker^https://fonts.googleapis.com/css?family=Permanent+Marker">
      <root>
        <mxCell id="0" />
        <mxCell id="1" parent="0" />
        <mxCell id="FKqomgGVLj7_TAxLZ9Gf-232" value="필터" style="swimlane;fontStyle=0;childLayout=stackLayout;horizontal=1;startSize=26;horizontalStack=0;resizeParent=1;resizeParentMax=0;resizeLast=0;collapsible=1;marginBottom=0;" vertex="1" parent="1">
          <mxGeometry x="1820" y="520" width="140" height="130" as="geometry" />
        </mxCell>
        <mxCell id="FKqomgGVLj7_TAxLZ9Gf-233" value="지역" style="text;strokeColor=none;fillColor=none;align=left;verticalAlign=top;spacingLeft=4;spacingRight=4;overflow=hidden;rotatable=0;points=[[0,0.5],[1,0.5]];portConstraint=eastwest;" vertex="1" parent="FKqomgGVLj7_TAxLZ9Gf-232">
          <mxGeometry y="26" width="140" height="26" as="geometry" />
        </mxCell>
        <mxCell id="FKqomgGVLj7_TAxLZ9Gf-234" value="일정" style="text;strokeColor=none;fillColor=none;align=left;verticalAlign=top;spacingLeft=4;spacingRight=4;overflow=hidden;rotatable=0;points=[[0,0.5],[1,0.5]];portConstraint=eastwest;" vertex="1" parent="FKqomgGVLj7_TAxLZ9Gf-232">
          <mxGeometry y="52" width="140" height="26" as="geometry" />
        </mxCell>
        <mxCell id="FKqomgGVLj7_TAxLZ9Gf-235" value="테마" style="text;strokeColor=none;fillColor=none;align=left;verticalAlign=top;spacingLeft=4;spacingRight=4;overflow=hidden;rotatable=0;points=[[0,0.5],[1,0.5]];portConstraint=eastwest;" vertex="1" parent="FKqomgGVLj7_TAxLZ9Gf-232">
          <mxGeometry y="78" width="140" height="26" as="geometry" />
        </mxCell>
        <mxCell id="FKqomgGVLj7_TAxLZ9Gf-236" value="숙소" style="text;strokeColor=none;fillColor=none;align=left;verticalAlign=top;spacingLeft=4;spacingRight=4;overflow=hidden;rotatable=0;points=[[0,0.5],[1,0.5]];portConstraint=eastwest;" vertex="1" parent="FKqomgGVLj7_TAxLZ9Gf-232">
          <mxGeometry y="104" width="140" height="26" as="geometry" />
        </mxCell>
        <mxCell id="FKqomgGVLj7_TAxLZ9Gf-237" value="지역 " style="swimlane;fontStyle=0;childLayout=stackLayout;horizontal=1;startSize=26;horizontalStack=0;resizeParent=1;resizeParentMax=0;resizeLast=0;collapsible=1;marginBottom=0;" vertex="1" parent="1">
          <mxGeometry x="2440" y="282" width="140" height="208" as="geometry" />
        </mxCell>
        <mxCell id="FKqomgGVLj7_TAxLZ9Gf-238" value="서울" style="text;strokeColor=none;fillColor=none;align=left;verticalAlign=top;spacingLeft=4;spacingRight=4;overflow=hidden;rotatable=0;points=[[0,0.5],[1,0.5]];portConstraint=eastwest;" vertex="1" parent="FKqomgGVLj7_TAxLZ9Gf-237">
          <mxGeometry y="26" width="140" height="26" as="geometry" />
        </mxCell>
        <mxCell id="FKqomgGVLj7_TAxLZ9Gf-239" value="경기도" style="text;strokeColor=none;fillColor=none;align=left;verticalAlign=top;spacingLeft=4;spacingRight=4;overflow=hidden;rotatable=0;points=[[0,0.5],[1,0.5]];portConstraint=eastwest;" vertex="1" parent="FKqomgGVLj7_TAxLZ9Gf-237">
          <mxGeometry y="52" width="140" height="26" as="geometry" />
        </mxCell>
        <mxCell id="FKqomgGVLj7_TAxLZ9Gf-240" value="충청도 " style="text;strokeColor=none;fillColor=none;align=left;verticalAlign=top;spacingLeft=4;spacingRight=4;overflow=hidden;rotatable=0;points=[[0,0.5],[1,0.5]];portConstraint=eastwest;" vertex="1" parent="FKqomgGVLj7_TAxLZ9Gf-237">
          <mxGeometry y="78" width="140" height="26" as="geometry" />
        </mxCell>
        <mxCell id="FKqomgGVLj7_TAxLZ9Gf-241" value="전라도" style="text;strokeColor=none;fillColor=none;align=left;verticalAlign=top;spacingLeft=4;spacingRight=4;overflow=hidden;rotatable=0;points=[[0,0.5],[1,0.5]];portConstraint=eastwest;" vertex="1" parent="FKqomgGVLj7_TAxLZ9Gf-237">
          <mxGeometry y="104" width="140" height="26" as="geometry" />
        </mxCell>
        <mxCell id="FKqomgGVLj7_TAxLZ9Gf-242" value="강원도" style="text;strokeColor=none;fillColor=none;align=left;verticalAlign=top;spacingLeft=4;spacingRight=4;overflow=hidden;rotatable=0;points=[[0,0.5],[1,0.5]];portConstraint=eastwest;" vertex="1" parent="FKqomgGVLj7_TAxLZ9Gf-237">
          <mxGeometry y="130" width="140" height="26" as="geometry" />
        </mxCell>
        <mxCell id="FKqomgGVLj7_TAxLZ9Gf-243" value="경상도" style="text;strokeColor=none;fillColor=none;align=left;verticalAlign=top;spacingLeft=4;spacingRight=4;overflow=hidden;rotatable=0;points=[[0,0.5],[1,0.5]];portConstraint=eastwest;" vertex="1" parent="FKqomgGVLj7_TAxLZ9Gf-237">
          <mxGeometry y="156" width="140" height="26" as="geometry" />
        </mxCell>
        <mxCell id="FKqomgGVLj7_TAxLZ9Gf-244" value="제주도" style="text;strokeColor=none;fillColor=none;align=left;verticalAlign=top;spacingLeft=4;spacingRight=4;overflow=hidden;rotatable=0;points=[[0,0.5],[1,0.5]];portConstraint=eastwest;" vertex="1" parent="FKqomgGVLj7_TAxLZ9Gf-237">
          <mxGeometry y="182" width="140" height="26" as="geometry" />
        </mxCell>
        <mxCell id="FKqomgGVLj7_TAxLZ9Gf-245" value="일정" style="swimlane;fontStyle=0;childLayout=stackLayout;horizontal=1;startSize=26;horizontalStack=0;resizeParent=1;resizeParentMax=0;resizeLast=0;collapsible=1;marginBottom=0;" vertex="1" parent="1">
          <mxGeometry x="2440" y="534" width="140" height="78" as="geometry" />
        </mxCell>
        <mxCell id="FKqomgGVLj7_TAxLZ9Gf-246" value="당일치기" style="text;strokeColor=none;fillColor=none;align=left;verticalAlign=top;spacingLeft=4;spacingRight=4;overflow=hidden;rotatable=0;points=[[0,0.5],[1,0.5]];portConstraint=eastwest;" vertex="1" parent="FKqomgGVLj7_TAxLZ9Gf-245">
          <mxGeometry y="26" width="140" height="26" as="geometry" />
        </mxCell>
        <mxCell id="FKqomgGVLj7_TAxLZ9Gf-247" value="~일" style="text;strokeColor=none;fillColor=none;align=left;verticalAlign=top;spacingLeft=4;spacingRight=4;overflow=hidden;rotatable=0;points=[[0,0.5],[1,0.5]];portConstraint=eastwest;" vertex="1" parent="FKqomgGVLj7_TAxLZ9Gf-245">
          <mxGeometry y="52" width="140" height="26" as="geometry" />
        </mxCell>
        <mxCell id="FKqomgGVLj7_TAxLZ9Gf-248" value="테마" style="swimlane;fontStyle=0;childLayout=stackLayout;horizontal=1;startSize=26;horizontalStack=0;resizeParent=1;resizeParentMax=0;resizeLast=0;collapsible=1;marginBottom=0;" vertex="1" parent="1">
          <mxGeometry x="2440" y="745" width="140" height="234" as="geometry" />
        </mxCell>
        <mxCell id="FKqomgGVLj7_TAxLZ9Gf-249" value="커플" style="text;strokeColor=none;fillColor=none;align=left;verticalAlign=top;spacingLeft=4;spacingRight=4;overflow=hidden;rotatable=0;points=[[0,0.5],[1,0.5]];portConstraint=eastwest;" vertex="1" parent="FKqomgGVLj7_TAxLZ9Gf-248">
          <mxGeometry y="26" width="140" height="26" as="geometry" />
        </mxCell>
        <mxCell id="FKqomgGVLj7_TAxLZ9Gf-250" value="가족" style="text;strokeColor=none;fillColor=none;align=left;verticalAlign=top;spacingLeft=4;spacingRight=4;overflow=hidden;rotatable=0;points=[[0,0.5],[1,0.5]];portConstraint=eastwest;" vertex="1" parent="FKqomgGVLj7_TAxLZ9Gf-248">
          <mxGeometry y="52" width="140" height="26" as="geometry" />
        </mxCell>
        <mxCell id="FKqomgGVLj7_TAxLZ9Gf-251" value="힐링" style="text;strokeColor=none;fillColor=none;align=left;verticalAlign=top;spacingLeft=4;spacingRight=4;overflow=hidden;rotatable=0;points=[[0,0.5],[1,0.5]];portConstraint=eastwest;" vertex="1" parent="FKqomgGVLj7_TAxLZ9Gf-248">
          <mxGeometry y="78" width="140" height="26" as="geometry" />
        </mxCell>
        <mxCell id="FKqomgGVLj7_TAxLZ9Gf-252" value="레저" style="text;strokeColor=none;fillColor=none;align=left;verticalAlign=top;spacingLeft=4;spacingRight=4;overflow=hidden;rotatable=0;points=[[0,0.5],[1,0.5]];portConstraint=eastwest;" vertex="1" parent="FKqomgGVLj7_TAxLZ9Gf-248">
          <mxGeometry y="104" width="140" height="26" as="geometry" />
        </mxCell>
        <mxCell id="FKqomgGVLj7_TAxLZ9Gf-253" value="식도락" style="text;strokeColor=none;fillColor=none;align=left;verticalAlign=top;spacingLeft=4;spacingRight=4;overflow=hidden;rotatable=0;points=[[0,0.5],[1,0.5]];portConstraint=eastwest;" vertex="1" parent="FKqomgGVLj7_TAxLZ9Gf-248">
          <mxGeometry y="130" width="140" height="26" as="geometry" />
        </mxCell>
        <mxCell id="FKqomgGVLj7_TAxLZ9Gf-254" value="우정" style="text;strokeColor=none;fillColor=none;align=left;verticalAlign=top;spacingLeft=4;spacingRight=4;overflow=hidden;rotatable=0;points=[[0,0.5],[1,0.5]];portConstraint=eastwest;" vertex="1" parent="FKqomgGVLj7_TAxLZ9Gf-248">
          <mxGeometry y="156" width="140" height="26" as="geometry" />
        </mxCell>
        <mxCell id="FKqomgGVLj7_TAxLZ9Gf-255" value="쇼핑" style="text;strokeColor=none;fillColor=none;align=left;verticalAlign=top;spacingLeft=4;spacingRight=4;overflow=hidden;rotatable=0;points=[[0,0.5],[1,0.5]];portConstraint=eastwest;" vertex="1" parent="FKqomgGVLj7_TAxLZ9Gf-248">
          <mxGeometry y="182" width="140" height="26" as="geometry" />
        </mxCell>
        <mxCell id="FKqomgGVLj7_TAxLZ9Gf-256" value="등등" style="text;strokeColor=none;fillColor=none;align=left;verticalAlign=top;spacingLeft=4;spacingRight=4;overflow=hidden;rotatable=0;points=[[0,0.5],[1,0.5]];portConstraint=eastwest;" vertex="1" parent="FKqomgGVLj7_TAxLZ9Gf-248">
          <mxGeometry y="208" width="140" height="26" as="geometry" />
        </mxCell>
        <mxCell id="FKqomgGVLj7_TAxLZ9Gf-257" value="숙소" style="swimlane;fontStyle=0;childLayout=stackLayout;horizontal=1;startSize=26;horizontalStack=0;resizeParent=1;resizeParentMax=0;resizeLast=0;collapsible=1;marginBottom=0;" vertex="1" parent="1">
          <mxGeometry x="2430" y="1055" width="140" height="208" as="geometry" />
        </mxCell>
        <mxCell id="FKqomgGVLj7_TAxLZ9Gf-258" value="호텔" style="text;strokeColor=none;fillColor=none;align=left;verticalAlign=top;spacingLeft=4;spacingRight=4;overflow=hidden;rotatable=0;points=[[0,0.5],[1,0.5]];portConstraint=eastwest;" vertex="1" parent="FKqomgGVLj7_TAxLZ9Gf-257">
          <mxGeometry y="26" width="140" height="26" as="geometry" />
        </mxCell>
        <mxCell id="FKqomgGVLj7_TAxLZ9Gf-259" value="모텔" style="text;strokeColor=none;fillColor=none;align=left;verticalAlign=top;spacingLeft=4;spacingRight=4;overflow=hidden;rotatable=0;points=[[0,0.5],[1,0.5]];portConstraint=eastwest;" vertex="1" parent="FKqomgGVLj7_TAxLZ9Gf-257">
          <mxGeometry y="52" width="140" height="26" as="geometry" />
        </mxCell>
        <mxCell id="FKqomgGVLj7_TAxLZ9Gf-260" value="풀빌라" style="text;strokeColor=none;fillColor=none;align=left;verticalAlign=top;spacingLeft=4;spacingRight=4;overflow=hidden;rotatable=0;points=[[0,0.5],[1,0.5]];portConstraint=eastwest;" vertex="1" parent="FKqomgGVLj7_TAxLZ9Gf-257">
          <mxGeometry y="78" width="140" height="26" as="geometry" />
        </mxCell>
        <mxCell id="FKqomgGVLj7_TAxLZ9Gf-261" value="글램핑" style="text;strokeColor=none;fillColor=none;align=left;verticalAlign=top;spacingLeft=4;spacingRight=4;overflow=hidden;rotatable=0;points=[[0,0.5],[1,0.5]];portConstraint=eastwest;" vertex="1" parent="FKqomgGVLj7_TAxLZ9Gf-257">
          <mxGeometry y="104" width="140" height="26" as="geometry" />
        </mxCell>
        <mxCell id="FKqomgGVLj7_TAxLZ9Gf-262" value="민박" style="text;strokeColor=none;fillColor=none;align=left;verticalAlign=top;spacingLeft=4;spacingRight=4;overflow=hidden;rotatable=0;points=[[0,0.5],[1,0.5]];portConstraint=eastwest;" vertex="1" parent="FKqomgGVLj7_TAxLZ9Gf-257">
          <mxGeometry y="130" width="140" height="26" as="geometry" />
        </mxCell>
        <mxCell id="FKqomgGVLj7_TAxLZ9Gf-263" value="게스트 하우스" style="text;strokeColor=none;fillColor=none;align=left;verticalAlign=top;spacingLeft=4;spacingRight=4;overflow=hidden;rotatable=0;points=[[0,0.5],[1,0.5]];portConstraint=eastwest;" vertex="1" parent="FKqomgGVLj7_TAxLZ9Gf-257">
          <mxGeometry y="156" width="140" height="26" as="geometry" />
        </mxCell>
        <mxCell id="FKqomgGVLj7_TAxLZ9Gf-264" value="등등" style="text;strokeColor=none;fillColor=none;align=left;verticalAlign=top;spacingLeft=4;spacingRight=4;overflow=hidden;rotatable=0;points=[[0,0.5],[1,0.5]];portConstraint=eastwest;" vertex="1" parent="FKqomgGVLj7_TAxLZ9Gf-257">
          <mxGeometry y="182" width="140" height="26" as="geometry" />
        </mxCell>
        <mxCell id="FKqomgGVLj7_TAxLZ9Gf-265" value="Member" style="shape=table;startSize=30;container=1;collapsible=0;childLayout=tableLayout;fixedRows=1;rowLines=0;fontStyle=1;align=center;" vertex="1" parent="1">
          <mxGeometry x="1520" y="448" width="180" height="250" as="geometry" />
        </mxCell>
        <mxCell id="FKqomgGVLj7_TAxLZ9Gf-266" value="" style="shape=partialRectangle;html=1;whiteSpace=wrap;collapsible=0;dropTarget=0;pointerEvents=0;fillColor=none;top=0;left=0;bottom=1;right=0;points=[[0,0.5],[1,0.5]];portConstraint=eastwest;" vertex="1" parent="FKqomgGVLj7_TAxLZ9Gf-265">
          <mxGeometry y="30" width="180" height="30" as="geometry" />
        </mxCell>
        <mxCell id="FKqomgGVLj7_TAxLZ9Gf-267" value="PK" style="shape=partialRectangle;html=1;whiteSpace=wrap;connectable=0;fillColor=none;top=0;left=0;bottom=0;right=0;overflow=hidden;" vertex="1" parent="FKqomgGVLj7_TAxLZ9Gf-266">
          <mxGeometry width="40" height="30" as="geometry" />
        </mxCell>
        <mxCell id="FKqomgGVLj7_TAxLZ9Gf-268" value="member_no" style="shape=partialRectangle;html=1;whiteSpace=wrap;connectable=0;fillColor=none;top=0;left=0;bottom=0;right=0;align=left;spacingLeft=6;overflow=hidden;" vertex="1" parent="FKqomgGVLj7_TAxLZ9Gf-266">
          <mxGeometry x="40" width="140" height="30" as="geometry" />
        </mxCell>
        <mxCell id="FKqomgGVLj7_TAxLZ9Gf-269" value="" style="shape=partialRectangle;html=1;whiteSpace=wrap;collapsible=0;dropTarget=0;pointerEvents=0;fillColor=none;top=0;left=0;bottom=0;right=0;points=[[0,0.5],[1,0.5]];portConstraint=eastwest;" vertex="1" parent="FKqomgGVLj7_TAxLZ9Gf-265">
          <mxGeometry y="60" width="180" height="30" as="geometry" />
        </mxCell>
        <mxCell id="FKqomgGVLj7_TAxLZ9Gf-270" value="" style="shape=partialRectangle;html=1;whiteSpace=wrap;connectable=0;fillColor=none;top=0;left=0;bottom=0;right=0;overflow=hidden;" vertex="1" parent="FKqomgGVLj7_TAxLZ9Gf-269">
          <mxGeometry width="40" height="30" as="geometry" />
        </mxCell>
        <mxCell id="FKqomgGVLj7_TAxLZ9Gf-271" value="&lt;span&gt;id&lt;/span&gt;" style="shape=partialRectangle;html=1;whiteSpace=wrap;connectable=0;fillColor=none;top=0;left=0;bottom=0;right=0;align=left;spacingLeft=6;overflow=hidden;" vertex="1" parent="FKqomgGVLj7_TAxLZ9Gf-269">
          <mxGeometry x="40" width="140" height="30" as="geometry" />
        </mxCell>
        <mxCell id="FKqomgGVLj7_TAxLZ9Gf-272" value="" style="shape=partialRectangle;html=1;whiteSpace=wrap;collapsible=0;dropTarget=0;pointerEvents=0;fillColor=none;top=0;left=0;bottom=0;right=0;points=[[0,0.5],[1,0.5]];portConstraint=eastwest;" vertex="1" parent="FKqomgGVLj7_TAxLZ9Gf-265">
          <mxGeometry y="90" width="180" height="30" as="geometry" />
        </mxCell>
        <mxCell id="FKqomgGVLj7_TAxLZ9Gf-273" value="" style="shape=partialRectangle;html=1;whiteSpace=wrap;connectable=0;fillColor=none;top=0;left=0;bottom=0;right=0;overflow=hidden;" vertex="1" parent="FKqomgGVLj7_TAxLZ9Gf-272">
          <mxGeometry width="40" height="30" as="geometry" />
        </mxCell>
        <mxCell id="FKqomgGVLj7_TAxLZ9Gf-274" value="&lt;span&gt;pw&lt;/span&gt;" style="shape=partialRectangle;html=1;whiteSpace=wrap;connectable=0;fillColor=none;top=0;left=0;bottom=0;right=0;align=left;spacingLeft=6;overflow=hidden;" vertex="1" parent="FKqomgGVLj7_TAxLZ9Gf-272">
          <mxGeometry x="40" width="140" height="30" as="geometry" />
        </mxCell>
        <mxCell id="FKqomgGVLj7_TAxLZ9Gf-275" value="" style="shape=partialRectangle;html=1;whiteSpace=wrap;collapsible=0;dropTarget=0;pointerEvents=0;fillColor=none;top=0;left=0;bottom=0;right=0;points=[[0,0.5],[1,0.5]];portConstraint=eastwest;" vertex="1" parent="FKqomgGVLj7_TAxLZ9Gf-265">
          <mxGeometry y="120" width="180" height="30" as="geometry" />
        </mxCell>
        <mxCell id="FKqomgGVLj7_TAxLZ9Gf-276" value="" style="shape=partialRectangle;html=1;whiteSpace=wrap;connectable=0;fillColor=none;top=0;left=0;bottom=0;right=0;overflow=hidden;" vertex="1" parent="FKqomgGVLj7_TAxLZ9Gf-275">
          <mxGeometry width="40" height="30" as="geometry" />
        </mxCell>
        <mxCell id="FKqomgGVLj7_TAxLZ9Gf-277" value="닉네임" style="shape=partialRectangle;html=1;whiteSpace=wrap;connectable=0;fillColor=none;top=0;left=0;bottom=0;right=0;align=left;spacingLeft=6;overflow=hidden;" vertex="1" parent="FKqomgGVLj7_TAxLZ9Gf-275">
          <mxGeometry x="40" width="140" height="30" as="geometry" />
        </mxCell>
        <mxCell id="FKqomgGVLj7_TAxLZ9Gf-278" value="" style="shape=partialRectangle;html=1;whiteSpace=wrap;collapsible=0;dropTarget=0;pointerEvents=0;fillColor=none;top=0;left=0;bottom=0;right=0;points=[[0,0.5],[1,0.5]];portConstraint=eastwest;" vertex="1" parent="FKqomgGVLj7_TAxLZ9Gf-265">
          <mxGeometry y="150" width="180" height="30" as="geometry" />
        </mxCell>
        <mxCell id="FKqomgGVLj7_TAxLZ9Gf-279" value="" style="shape=partialRectangle;html=1;whiteSpace=wrap;connectable=0;fillColor=none;top=0;left=0;bottom=0;right=0;overflow=hidden;" vertex="1" parent="FKqomgGVLj7_TAxLZ9Gf-278">
          <mxGeometry width="40" height="30" as="geometry" />
        </mxCell>
        <mxCell id="FKqomgGVLj7_TAxLZ9Gf-280" value="전화번호&amp;nbsp;" style="shape=partialRectangle;html=1;whiteSpace=wrap;connectable=0;fillColor=none;top=0;left=0;bottom=0;right=0;align=left;spacingLeft=6;overflow=hidden;" vertex="1" parent="FKqomgGVLj7_TAxLZ9Gf-278">
          <mxGeometry x="40" width="140" height="30" as="geometry" />
        </mxCell>
        <mxCell id="FKqomgGVLj7_TAxLZ9Gf-281" value="" style="shape=partialRectangle;html=1;whiteSpace=wrap;collapsible=0;dropTarget=0;pointerEvents=0;fillColor=none;top=0;left=0;bottom=0;right=0;points=[[0,0.5],[1,0.5]];portConstraint=eastwest;" vertex="1" parent="FKqomgGVLj7_TAxLZ9Gf-265">
          <mxGeometry y="180" width="180" height="30" as="geometry" />
        </mxCell>
        <mxCell id="FKqomgGVLj7_TAxLZ9Gf-282" value="" style="shape=partialRectangle;html=1;whiteSpace=wrap;connectable=0;fillColor=none;top=0;left=0;bottom=0;right=0;overflow=hidden;" vertex="1" parent="FKqomgGVLj7_TAxLZ9Gf-281">
          <mxGeometry width="40" height="30" as="geometry" />
        </mxCell>
        <mxCell id="FKqomgGVLj7_TAxLZ9Gf-283" value="이름" style="shape=partialRectangle;html=1;whiteSpace=wrap;connectable=0;fillColor=none;top=0;left=0;bottom=0;right=0;align=left;spacingLeft=6;overflow=hidden;" vertex="1" parent="FKqomgGVLj7_TAxLZ9Gf-281">
          <mxGeometry x="40" width="140" height="30" as="geometry" />
        </mxCell>
        <mxCell id="FKqomgGVLj7_TAxLZ9Gf-284" value="" style="shape=partialRectangle;html=1;whiteSpace=wrap;collapsible=0;dropTarget=0;pointerEvents=0;fillColor=none;top=0;left=0;bottom=0;right=0;points=[[0,0.5],[1,0.5]];portConstraint=eastwest;" vertex="1" parent="FKqomgGVLj7_TAxLZ9Gf-265">
          <mxGeometry y="210" width="180" height="30" as="geometry" />
        </mxCell>
        <mxCell id="FKqomgGVLj7_TAxLZ9Gf-285" value="" style="shape=partialRectangle;html=1;whiteSpace=wrap;connectable=0;fillColor=none;top=0;left=0;bottom=0;right=0;overflow=hidden;" vertex="1" parent="FKqomgGVLj7_TAxLZ9Gf-284">
          <mxGeometry width="40" height="30" as="geometry" />
        </mxCell>
        <mxCell id="FKqomgGVLj7_TAxLZ9Gf-286" value="email" style="shape=partialRectangle;html=1;whiteSpace=wrap;connectable=0;fillColor=none;top=0;left=0;bottom=0;right=0;align=left;spacingLeft=6;overflow=hidden;" vertex="1" parent="FKqomgGVLj7_TAxLZ9Gf-284">
          <mxGeometry x="40" width="140" height="30" as="geometry" />
        </mxCell>
        <mxCell id="FKqomgGVLj7_TAxLZ9Gf-287" value="지역" style="shape=table;startSize=30;container=1;collapsible=0;childLayout=tableLayout;fixedRows=1;rowLines=0;fontStyle=1;align=center;" vertex="1" parent="1">
          <mxGeometry x="2160" y="282" width="180" height="150" as="geometry" />
        </mxCell>
        <mxCell id="FKqomgGVLj7_TAxLZ9Gf-288" value="" style="shape=partialRectangle;html=1;whiteSpace=wrap;collapsible=0;dropTarget=0;pointerEvents=0;fillColor=none;top=0;left=0;bottom=1;right=0;points=[[0,0.5],[1,0.5]];portConstraint=eastwest;" vertex="1" parent="FKqomgGVLj7_TAxLZ9Gf-287">
          <mxGeometry y="30" width="180" height="30" as="geometry" />
        </mxCell>
        <mxCell id="FKqomgGVLj7_TAxLZ9Gf-289" value="PK" style="shape=partialRectangle;html=1;whiteSpace=wrap;connectable=0;fillColor=none;top=0;left=0;bottom=0;right=0;overflow=hidden;" vertex="1" parent="FKqomgGVLj7_TAxLZ9Gf-288">
          <mxGeometry width="40" height="30" as="geometry" />
        </mxCell>
        <mxCell id="FKqomgGVLj7_TAxLZ9Gf-290" value="no(pk)" style="shape=partialRectangle;html=1;whiteSpace=wrap;connectable=0;fillColor=none;top=0;left=0;bottom=0;right=0;align=left;spacingLeft=6;overflow=hidden;" vertex="1" parent="FKqomgGVLj7_TAxLZ9Gf-288">
          <mxGeometry x="40" width="140" height="30" as="geometry" />
        </mxCell>
        <mxCell id="FKqomgGVLj7_TAxLZ9Gf-291" value="" style="shape=partialRectangle;html=1;whiteSpace=wrap;collapsible=0;dropTarget=0;pointerEvents=0;fillColor=none;top=0;left=0;bottom=0;right=0;points=[[0,0.5],[1,0.5]];portConstraint=eastwest;" vertex="1" parent="FKqomgGVLj7_TAxLZ9Gf-287">
          <mxGeometry y="60" width="180" height="30" as="geometry" />
        </mxCell>
        <mxCell id="FKqomgGVLj7_TAxLZ9Gf-292" value="" style="shape=partialRectangle;html=1;whiteSpace=wrap;connectable=0;fillColor=none;top=0;left=0;bottom=0;right=0;overflow=hidden;" vertex="1" parent="FKqomgGVLj7_TAxLZ9Gf-291">
          <mxGeometry width="40" height="30" as="geometry" />
        </mxCell>
        <mxCell id="FKqomgGVLj7_TAxLZ9Gf-293" value="name (지역이름)" style="shape=partialRectangle;html=1;whiteSpace=wrap;connectable=0;fillColor=none;top=0;left=0;bottom=0;right=0;align=left;spacingLeft=6;overflow=hidden;" vertex="1" parent="FKqomgGVLj7_TAxLZ9Gf-291">
          <mxGeometry x="40" width="140" height="30" as="geometry" />
        </mxCell>
        <mxCell id="FKqomgGVLj7_TAxLZ9Gf-294" value="" style="shape=partialRectangle;html=1;whiteSpace=wrap;collapsible=0;dropTarget=0;pointerEvents=0;fillColor=none;top=0;left=0;bottom=0;right=0;points=[[0,0.5],[1,0.5]];portConstraint=eastwest;" vertex="1" parent="FKqomgGVLj7_TAxLZ9Gf-287">
          <mxGeometry y="90" width="180" height="30" as="geometry" />
        </mxCell>
        <mxCell id="FKqomgGVLj7_TAxLZ9Gf-295" value="" style="shape=partialRectangle;html=1;whiteSpace=wrap;connectable=0;fillColor=none;top=0;left=0;bottom=0;right=0;overflow=hidden;" vertex="1" parent="FKqomgGVLj7_TAxLZ9Gf-294">
          <mxGeometry width="40" height="30" as="geometry" />
        </mxCell>
        <mxCell id="FKqomgGVLj7_TAxLZ9Gf-296" value="type(지역번호, 17개)" style="shape=partialRectangle;html=1;whiteSpace=wrap;connectable=0;fillColor=none;top=0;left=0;bottom=0;right=0;align=left;spacingLeft=6;overflow=hidden;" vertex="1" parent="FKqomgGVLj7_TAxLZ9Gf-294">
          <mxGeometry x="40" width="140" height="30" as="geometry" />
        </mxCell>
        <mxCell id="FKqomgGVLj7_TAxLZ9Gf-297" value="일정" style="shape=table;startSize=30;container=1;collapsible=0;childLayout=tableLayout;fixedRows=1;rowLines=0;fontStyle=1;align=center;" vertex="1" parent="1">
          <mxGeometry x="2160" y="542" width="180" height="120" as="geometry" />
        </mxCell>
        <mxCell id="FKqomgGVLj7_TAxLZ9Gf-298" value="" style="shape=partialRectangle;html=1;whiteSpace=wrap;collapsible=0;dropTarget=0;pointerEvents=0;fillColor=none;top=0;left=0;bottom=1;right=0;points=[[0,0.5],[1,0.5]];portConstraint=eastwest;" vertex="1" parent="FKqomgGVLj7_TAxLZ9Gf-297">
          <mxGeometry y="30" width="180" height="30" as="geometry" />
        </mxCell>
        <mxCell id="FKqomgGVLj7_TAxLZ9Gf-299" value="PK" style="shape=partialRectangle;html=1;whiteSpace=wrap;connectable=0;fillColor=none;top=0;left=0;bottom=0;right=0;overflow=hidden;" vertex="1" parent="FKqomgGVLj7_TAxLZ9Gf-298">
          <mxGeometry width="40" height="30" as="geometry" />
        </mxCell>
        <mxCell id="FKqomgGVLj7_TAxLZ9Gf-300" value="no" style="shape=partialRectangle;html=1;whiteSpace=wrap;connectable=0;fillColor=none;top=0;left=0;bottom=0;right=0;align=left;spacingLeft=6;overflow=hidden;" vertex="1" parent="FKqomgGVLj7_TAxLZ9Gf-298">
          <mxGeometry x="40" width="140" height="30" as="geometry" />
        </mxCell>
        <mxCell id="FKqomgGVLj7_TAxLZ9Gf-301" value="" style="shape=partialRectangle;html=1;whiteSpace=wrap;collapsible=0;dropTarget=0;pointerEvents=0;fillColor=none;top=0;left=0;bottom=0;right=0;points=[[0,0.5],[1,0.5]];portConstraint=eastwest;" vertex="1" parent="FKqomgGVLj7_TAxLZ9Gf-297">
          <mxGeometry y="60" width="180" height="30" as="geometry" />
        </mxCell>
        <mxCell id="FKqomgGVLj7_TAxLZ9Gf-302" value="FK" style="shape=partialRectangle;html=1;whiteSpace=wrap;connectable=0;fillColor=none;top=0;left=0;bottom=0;right=0;overflow=hidden;" vertex="1" parent="FKqomgGVLj7_TAxLZ9Gf-301">
          <mxGeometry width="40" height="30" as="geometry" />
        </mxCell>
        <mxCell id="FKqomgGVLj7_TAxLZ9Gf-303" value="일정 ( x , x일 )" style="shape=partialRectangle;html=1;whiteSpace=wrap;connectable=0;fillColor=none;top=0;left=0;bottom=0;right=0;align=left;spacingLeft=6;overflow=hidden;" vertex="1" parent="FKqomgGVLj7_TAxLZ9Gf-301">
          <mxGeometry x="40" width="140" height="30" as="geometry" />
        </mxCell>
        <mxCell id="FKqomgGVLj7_TAxLZ9Gf-304" value="테마" style="shape=table;startSize=30;container=1;collapsible=0;childLayout=tableLayout;fixedRows=1;rowLines=0;fontStyle=1;align=center;" vertex="1" parent="1">
          <mxGeometry x="2160" y="748" width="180" height="150" as="geometry" />
        </mxCell>
        <mxCell id="FKqomgGVLj7_TAxLZ9Gf-305" value="" style="shape=partialRectangle;html=1;whiteSpace=wrap;collapsible=0;dropTarget=0;pointerEvents=0;fillColor=none;top=0;left=0;bottom=1;right=0;points=[[0,0.5],[1,0.5]];portConstraint=eastwest;" vertex="1" parent="FKqomgGVLj7_TAxLZ9Gf-304">
          <mxGeometry y="30" width="180" height="30" as="geometry" />
        </mxCell>
        <mxCell id="FKqomgGVLj7_TAxLZ9Gf-306" value="PK" style="shape=partialRectangle;html=1;whiteSpace=wrap;connectable=0;fillColor=none;top=0;left=0;bottom=0;right=0;overflow=hidden;" vertex="1" parent="FKqomgGVLj7_TAxLZ9Gf-305">
          <mxGeometry width="40" height="30" as="geometry" />
        </mxCell>
        <mxCell id="FKqomgGVLj7_TAxLZ9Gf-307" value="no" style="shape=partialRectangle;html=1;whiteSpace=wrap;connectable=0;fillColor=none;top=0;left=0;bottom=0;right=0;align=left;spacingLeft=6;overflow=hidden;" vertex="1" parent="FKqomgGVLj7_TAxLZ9Gf-305">
          <mxGeometry x="40" width="140" height="30" as="geometry" />
        </mxCell>
        <mxCell id="FKqomgGVLj7_TAxLZ9Gf-308" value="" style="shape=partialRectangle;html=1;whiteSpace=wrap;collapsible=0;dropTarget=0;pointerEvents=0;fillColor=none;top=0;left=0;bottom=0;right=0;points=[[0,0.5],[1,0.5]];portConstraint=eastwest;" vertex="1" parent="FKqomgGVLj7_TAxLZ9Gf-304">
          <mxGeometry y="60" width="180" height="30" as="geometry" />
        </mxCell>
        <mxCell id="FKqomgGVLj7_TAxLZ9Gf-309" value="" style="shape=partialRectangle;html=1;whiteSpace=wrap;connectable=0;fillColor=none;top=0;left=0;bottom=0;right=0;overflow=hidden;" vertex="1" parent="FKqomgGVLj7_TAxLZ9Gf-308">
          <mxGeometry width="40" height="30" as="geometry" />
        </mxCell>
        <mxCell id="FKqomgGVLj7_TAxLZ9Gf-310" value="type&amp;nbsp;" style="shape=partialRectangle;html=1;whiteSpace=wrap;connectable=0;fillColor=none;top=0;left=0;bottom=0;right=0;align=left;spacingLeft=6;overflow=hidden;" vertex="1" parent="FKqomgGVLj7_TAxLZ9Gf-308">
          <mxGeometry x="40" width="140" height="30" as="geometry" />
        </mxCell>
        <mxCell id="FKqomgGVLj7_TAxLZ9Gf-311" value="" style="shape=partialRectangle;html=1;whiteSpace=wrap;collapsible=0;dropTarget=0;pointerEvents=0;fillColor=none;top=0;left=0;bottom=0;right=0;points=[[0,0.5],[1,0.5]];portConstraint=eastwest;" vertex="1" parent="FKqomgGVLj7_TAxLZ9Gf-304">
          <mxGeometry y="90" width="180" height="30" as="geometry" />
        </mxCell>
        <mxCell id="FKqomgGVLj7_TAxLZ9Gf-312" value="" style="shape=partialRectangle;html=1;whiteSpace=wrap;connectable=0;fillColor=none;top=0;left=0;bottom=0;right=0;overflow=hidden;" vertex="1" parent="FKqomgGVLj7_TAxLZ9Gf-311">
          <mxGeometry width="40" height="30" as="geometry" />
        </mxCell>
        <mxCell id="FKqomgGVLj7_TAxLZ9Gf-313" value="name&amp;nbsp;" style="shape=partialRectangle;html=1;whiteSpace=wrap;connectable=0;fillColor=none;top=0;left=0;bottom=0;right=0;align=left;spacingLeft=6;overflow=hidden;" vertex="1" parent="FKqomgGVLj7_TAxLZ9Gf-311">
          <mxGeometry x="40" width="140" height="30" as="geometry" />
        </mxCell>
        <mxCell id="FKqomgGVLj7_TAxLZ9Gf-314" value="숙소" style="shape=table;startSize=30;container=1;collapsible=0;childLayout=tableLayout;fixedRows=1;rowLines=0;fontStyle=1;align=center;" vertex="1" parent="1">
          <mxGeometry x="2160" y="1055" width="180" height="150" as="geometry" />
        </mxCell>
        <mxCell id="FKqomgGVLj7_TAxLZ9Gf-315" value="" style="shape=partialRectangle;html=1;whiteSpace=wrap;collapsible=0;dropTarget=0;pointerEvents=0;fillColor=none;top=0;left=0;bottom=1;right=0;points=[[0,0.5],[1,0.5]];portConstraint=eastwest;" vertex="1" parent="FKqomgGVLj7_TAxLZ9Gf-314">
          <mxGeometry y="30" width="180" height="30" as="geometry" />
        </mxCell>
        <mxCell id="FKqomgGVLj7_TAxLZ9Gf-316" value="PK" style="shape=partialRectangle;html=1;whiteSpace=wrap;connectable=0;fillColor=none;top=0;left=0;bottom=0;right=0;overflow=hidden;" vertex="1" parent="FKqomgGVLj7_TAxLZ9Gf-315">
          <mxGeometry width="40" height="30" as="geometry" />
        </mxCell>
        <mxCell id="FKqomgGVLj7_TAxLZ9Gf-317" value="no" style="shape=partialRectangle;html=1;whiteSpace=wrap;connectable=0;fillColor=none;top=0;left=0;bottom=0;right=0;align=left;spacingLeft=6;overflow=hidden;" vertex="1" parent="FKqomgGVLj7_TAxLZ9Gf-315">
          <mxGeometry x="40" width="140" height="30" as="geometry" />
        </mxCell>
        <mxCell id="FKqomgGVLj7_TAxLZ9Gf-318" value="" style="shape=partialRectangle;html=1;whiteSpace=wrap;collapsible=0;dropTarget=0;pointerEvents=0;fillColor=none;top=0;left=0;bottom=0;right=0;points=[[0,0.5],[1,0.5]];portConstraint=eastwest;" vertex="1" parent="FKqomgGVLj7_TAxLZ9Gf-314">
          <mxGeometry y="60" width="180" height="30" as="geometry" />
        </mxCell>
        <mxCell id="FKqomgGVLj7_TAxLZ9Gf-319" value="FK" style="shape=partialRectangle;html=1;whiteSpace=wrap;connectable=0;fillColor=none;top=0;left=0;bottom=0;right=0;overflow=hidden;" vertex="1" parent="FKqomgGVLj7_TAxLZ9Gf-318">
          <mxGeometry width="40" height="30" as="geometry" />
        </mxCell>
        <mxCell id="FKqomgGVLj7_TAxLZ9Gf-320" value="지역번호" style="shape=partialRectangle;html=1;whiteSpace=wrap;connectable=0;fillColor=none;top=0;left=0;bottom=0;right=0;align=left;spacingLeft=6;overflow=hidden;" vertex="1" parent="FKqomgGVLj7_TAxLZ9Gf-318">
          <mxGeometry x="40" width="140" height="30" as="geometry" />
        </mxCell>
        <mxCell id="FKqomgGVLj7_TAxLZ9Gf-321" value="" style="shape=partialRectangle;html=1;whiteSpace=wrap;collapsible=0;dropTarget=0;pointerEvents=0;fillColor=none;top=0;left=0;bottom=0;right=0;points=[[0,0.5],[1,0.5]];portConstraint=eastwest;" vertex="1" parent="FKqomgGVLj7_TAxLZ9Gf-314">
          <mxGeometry y="90" width="180" height="30" as="geometry" />
        </mxCell>
        <mxCell id="FKqomgGVLj7_TAxLZ9Gf-322" value="" style="shape=partialRectangle;html=1;whiteSpace=wrap;connectable=0;fillColor=none;top=0;left=0;bottom=0;right=0;overflow=hidden;" vertex="1" parent="FKqomgGVLj7_TAxLZ9Gf-321">
          <mxGeometry width="40" height="30" as="geometry" />
        </mxCell>
        <mxCell id="FKqomgGVLj7_TAxLZ9Gf-323" value="type( 숙소타입, 7개)" style="shape=partialRectangle;html=1;whiteSpace=wrap;connectable=0;fillColor=none;top=0;left=0;bottom=0;right=0;align=left;spacingLeft=6;overflow=hidden;" vertex="1" parent="FKqomgGVLj7_TAxLZ9Gf-321">
          <mxGeometry x="40" width="140" height="30" as="geometry" />
        </mxCell>
        <mxCell id="FKqomgGVLj7_TAxLZ9Gf-324" value="type 호텔" style="shape=table;startSize=30;container=1;collapsible=0;childLayout=tableLayout;fixedRows=1;rowLines=0;fontStyle=1;align=center;" vertex="1" parent="1">
          <mxGeometry x="2640" y="1055" width="180" height="240" as="geometry" />
        </mxCell>
        <mxCell id="FKqomgGVLj7_TAxLZ9Gf-325" value="" style="shape=partialRectangle;html=1;whiteSpace=wrap;collapsible=0;dropTarget=0;pointerEvents=0;fillColor=none;top=0;left=0;bottom=1;right=0;points=[[0,0.5],[1,0.5]];portConstraint=eastwest;" vertex="1" parent="FKqomgGVLj7_TAxLZ9Gf-324">
          <mxGeometry y="30" width="180" height="30" as="geometry" />
        </mxCell>
        <mxCell id="FKqomgGVLj7_TAxLZ9Gf-326" value="PK" style="shape=partialRectangle;html=1;whiteSpace=wrap;connectable=0;fillColor=none;top=0;left=0;bottom=0;right=0;overflow=hidden;" vertex="1" parent="FKqomgGVLj7_TAxLZ9Gf-325">
          <mxGeometry width="40" height="30" as="geometry" />
        </mxCell>
        <mxCell id="FKqomgGVLj7_TAxLZ9Gf-327" value="no" style="shape=partialRectangle;html=1;whiteSpace=wrap;connectable=0;fillColor=none;top=0;left=0;bottom=0;right=0;align=left;spacingLeft=6;overflow=hidden;" vertex="1" parent="FKqomgGVLj7_TAxLZ9Gf-325">
          <mxGeometry x="40" width="140" height="30" as="geometry" />
        </mxCell>
        <mxCell id="FKqomgGVLj7_TAxLZ9Gf-328" value="" style="shape=partialRectangle;html=1;whiteSpace=wrap;collapsible=0;dropTarget=0;pointerEvents=0;fillColor=none;top=0;left=0;bottom=0;right=0;points=[[0,0.5],[1,0.5]];portConstraint=eastwest;" vertex="1" parent="FKqomgGVLj7_TAxLZ9Gf-324">
          <mxGeometry y="60" width="180" height="30" as="geometry" />
        </mxCell>
        <mxCell id="FKqomgGVLj7_TAxLZ9Gf-329" value="" style="shape=partialRectangle;html=1;whiteSpace=wrap;connectable=0;fillColor=none;top=0;left=0;bottom=0;right=0;overflow=hidden;" vertex="1" parent="FKqomgGVLj7_TAxLZ9Gf-328">
          <mxGeometry width="40" height="30" as="geometry" />
        </mxCell>
        <mxCell id="FKqomgGVLj7_TAxLZ9Gf-330" value="이름" style="shape=partialRectangle;html=1;whiteSpace=wrap;connectable=0;fillColor=none;top=0;left=0;bottom=0;right=0;align=left;spacingLeft=6;overflow=hidden;" vertex="1" parent="FKqomgGVLj7_TAxLZ9Gf-328">
          <mxGeometry x="40" width="140" height="30" as="geometry" />
        </mxCell>
        <mxCell id="FKqomgGVLj7_TAxLZ9Gf-331" value="" style="shape=partialRectangle;html=1;whiteSpace=wrap;collapsible=0;dropTarget=0;pointerEvents=0;fillColor=none;top=0;left=0;bottom=0;right=0;points=[[0,0.5],[1,0.5]];portConstraint=eastwest;" vertex="1" parent="FKqomgGVLj7_TAxLZ9Gf-324">
          <mxGeometry y="90" width="180" height="30" as="geometry" />
        </mxCell>
        <mxCell id="FKqomgGVLj7_TAxLZ9Gf-332" value="" style="shape=partialRectangle;html=1;whiteSpace=wrap;connectable=0;fillColor=none;top=0;left=0;bottom=0;right=0;overflow=hidden;" vertex="1" parent="FKqomgGVLj7_TAxLZ9Gf-331">
          <mxGeometry width="40" height="30" as="geometry" />
        </mxCell>
        <mxCell id="FKqomgGVLj7_TAxLZ9Gf-333" value="주소" style="shape=partialRectangle;html=1;whiteSpace=wrap;connectable=0;fillColor=none;top=0;left=0;bottom=0;right=0;align=left;spacingLeft=6;overflow=hidden;" vertex="1" parent="FKqomgGVLj7_TAxLZ9Gf-331">
          <mxGeometry x="40" width="140" height="30" as="geometry" />
        </mxCell>
        <mxCell id="FKqomgGVLj7_TAxLZ9Gf-334" value="" style="shape=partialRectangle;html=1;whiteSpace=wrap;collapsible=0;dropTarget=0;pointerEvents=0;fillColor=none;top=0;left=0;bottom=0;right=0;points=[[0,0.5],[1,0.5]];portConstraint=eastwest;" vertex="1" parent="FKqomgGVLj7_TAxLZ9Gf-324">
          <mxGeometry y="120" width="180" height="30" as="geometry" />
        </mxCell>
        <mxCell id="FKqomgGVLj7_TAxLZ9Gf-335" value="" style="shape=partialRectangle;html=1;whiteSpace=wrap;connectable=0;fillColor=none;top=0;left=0;bottom=0;right=0;overflow=hidden;" vertex="1" parent="FKqomgGVLj7_TAxLZ9Gf-334">
          <mxGeometry width="40" height="30" as="geometry" />
        </mxCell>
        <mxCell id="FKqomgGVLj7_TAxLZ9Gf-336" value="전화번호" style="shape=partialRectangle;html=1;whiteSpace=wrap;connectable=0;fillColor=none;top=0;left=0;bottom=0;right=0;align=left;spacingLeft=6;overflow=hidden;" vertex="1" parent="FKqomgGVLj7_TAxLZ9Gf-334">
          <mxGeometry x="40" width="140" height="30" as="geometry" />
        </mxCell>
        <mxCell id="FKqomgGVLj7_TAxLZ9Gf-337" value="" style="shape=partialRectangle;html=1;whiteSpace=wrap;collapsible=0;dropTarget=0;pointerEvents=0;fillColor=none;top=0;left=0;bottom=0;right=0;points=[[0,0.5],[1,0.5]];portConstraint=eastwest;" vertex="1" parent="FKqomgGVLj7_TAxLZ9Gf-324">
          <mxGeometry y="150" width="180" height="30" as="geometry" />
        </mxCell>
        <mxCell id="FKqomgGVLj7_TAxLZ9Gf-338" value="" style="shape=partialRectangle;html=1;whiteSpace=wrap;connectable=0;fillColor=none;top=0;left=0;bottom=0;right=0;overflow=hidden;" vertex="1" parent="FKqomgGVLj7_TAxLZ9Gf-337">
          <mxGeometry width="40" height="30" as="geometry" />
        </mxCell>
        <mxCell id="FKqomgGVLj7_TAxLZ9Gf-339" value="사이트 링크" style="shape=partialRectangle;html=1;whiteSpace=wrap;connectable=0;fillColor=none;top=0;left=0;bottom=0;right=0;align=left;spacingLeft=6;overflow=hidden;" vertex="1" parent="FKqomgGVLj7_TAxLZ9Gf-337">
          <mxGeometry x="40" width="140" height="30" as="geometry" />
        </mxCell>
        <mxCell id="FKqomgGVLj7_TAxLZ9Gf-340" value="" style="shape=partialRectangle;html=1;whiteSpace=wrap;collapsible=0;dropTarget=0;pointerEvents=0;fillColor=none;top=0;left=0;bottom=0;right=0;points=[[0,0.5],[1,0.5]];portConstraint=eastwest;" vertex="1" parent="FKqomgGVLj7_TAxLZ9Gf-324">
          <mxGeometry y="180" width="180" height="30" as="geometry" />
        </mxCell>
        <mxCell id="FKqomgGVLj7_TAxLZ9Gf-341" value="FK" style="shape=partialRectangle;html=1;whiteSpace=wrap;connectable=0;fillColor=none;top=0;left=0;bottom=0;right=0;overflow=hidden;" vertex="1" parent="FKqomgGVLj7_TAxLZ9Gf-340">
          <mxGeometry width="40" height="30" as="geometry" />
        </mxCell>
        <mxCell id="FKqomgGVLj7_TAxLZ9Gf-342" value="type( 숙소타입, 7개)" style="shape=partialRectangle;html=1;whiteSpace=wrap;connectable=0;fillColor=none;top=0;left=0;bottom=0;right=0;align=left;spacingLeft=6;overflow=hidden;" vertex="1" parent="FKqomgGVLj7_TAxLZ9Gf-340">
          <mxGeometry x="40" width="140" height="30" as="geometry" />
        </mxCell>
        <mxCell id="FKqomgGVLj7_TAxLZ9Gf-343" value="type 즐겨찾기" style="shape=table;startSize=30;container=1;collapsible=0;childLayout=tableLayout;fixedRows=1;rowLines=0;fontStyle=1;align=center;" vertex="1" parent="1">
          <mxGeometry x="810" y="560" width="180" height="160" as="geometry" />
        </mxCell>
        <mxCell id="FKqomgGVLj7_TAxLZ9Gf-344" value="" style="shape=partialRectangle;html=1;whiteSpace=wrap;collapsible=0;dropTarget=0;pointerEvents=0;fillColor=none;top=0;left=0;bottom=1;right=0;points=[[0,0.5],[1,0.5]];portConstraint=eastwest;" vertex="1" parent="FKqomgGVLj7_TAxLZ9Gf-343">
          <mxGeometry y="30" width="180" height="30" as="geometry" />
        </mxCell>
        <mxCell id="FKqomgGVLj7_TAxLZ9Gf-345" value="PK" style="shape=partialRectangle;html=1;whiteSpace=wrap;connectable=0;fillColor=none;top=0;left=0;bottom=0;right=0;overflow=hidden;" vertex="1" parent="FKqomgGVLj7_TAxLZ9Gf-344">
          <mxGeometry width="40" height="30" as="geometry" />
        </mxCell>
        <mxCell id="FKqomgGVLj7_TAxLZ9Gf-346" value="no" style="shape=partialRectangle;html=1;whiteSpace=wrap;connectable=0;fillColor=none;top=0;left=0;bottom=0;right=0;align=left;spacingLeft=6;overflow=hidden;" vertex="1" parent="FKqomgGVLj7_TAxLZ9Gf-344">
          <mxGeometry x="40" width="140" height="30" as="geometry" />
        </mxCell>
        <mxCell id="FKqomgGVLj7_TAxLZ9Gf-347" value="" style="shape=partialRectangle;html=1;whiteSpace=wrap;collapsible=0;dropTarget=0;pointerEvents=0;fillColor=none;top=0;left=0;bottom=0;right=0;points=[[0,0.5],[1,0.5]];portConstraint=eastwest;" vertex="1" parent="FKqomgGVLj7_TAxLZ9Gf-343">
          <mxGeometry y="60" width="180" height="30" as="geometry" />
        </mxCell>
        <mxCell id="FKqomgGVLj7_TAxLZ9Gf-348" value="FK" style="shape=partialRectangle;html=1;whiteSpace=wrap;connectable=0;fillColor=none;top=0;left=0;bottom=0;right=0;overflow=hidden;" vertex="1" parent="FKqomgGVLj7_TAxLZ9Gf-347">
          <mxGeometry width="40" height="30" as="geometry" />
        </mxCell>
        <mxCell id="FKqomgGVLj7_TAxLZ9Gf-349" value="type" style="shape=partialRectangle;html=1;whiteSpace=wrap;connectable=0;fillColor=none;top=0;left=0;bottom=0;right=0;align=left;spacingLeft=6;overflow=hidden;" vertex="1" parent="FKqomgGVLj7_TAxLZ9Gf-347">
          <mxGeometry x="40" width="140" height="30" as="geometry" />
        </mxCell>
        <mxCell id="FKqomgGVLj7_TAxLZ9Gf-350" value="" style="shape=partialRectangle;html=1;whiteSpace=wrap;collapsible=0;dropTarget=0;pointerEvents=0;fillColor=none;top=0;left=0;bottom=0;right=0;points=[[0,0.5],[1,0.5]];portConstraint=eastwest;" vertex="1" parent="FKqomgGVLj7_TAxLZ9Gf-343">
          <mxGeometry y="90" width="180" height="30" as="geometry" />
        </mxCell>
        <mxCell id="FKqomgGVLj7_TAxLZ9Gf-351" value="" style="shape=partialRectangle;html=1;whiteSpace=wrap;connectable=0;fillColor=none;top=0;left=0;bottom=0;right=0;overflow=hidden;" vertex="1" parent="FKqomgGVLj7_TAxLZ9Gf-350">
          <mxGeometry width="40" height="30" as="geometry" />
        </mxCell>
        <mxCell id="FKqomgGVLj7_TAxLZ9Gf-352" value="link (일정)" style="shape=partialRectangle;html=1;whiteSpace=wrap;connectable=0;fillColor=none;top=0;left=0;bottom=0;right=0;align=left;spacingLeft=6;overflow=hidden;" vertex="1" parent="FKqomgGVLj7_TAxLZ9Gf-350">
          <mxGeometry x="40" width="140" height="30" as="geometry" />
        </mxCell>
        <mxCell id="FKqomgGVLj7_TAxLZ9Gf-353" value="type 찜하기" style="shape=table;startSize=30;container=1;collapsible=0;childLayout=tableLayout;fixedRows=1;rowLines=0;fontStyle=1;align=center;" vertex="1" parent="1">
          <mxGeometry x="800" y="280" width="180" height="150" as="geometry" />
        </mxCell>
        <mxCell id="FKqomgGVLj7_TAxLZ9Gf-354" value="" style="shape=partialRectangle;html=1;whiteSpace=wrap;collapsible=0;dropTarget=0;pointerEvents=0;fillColor=none;top=0;left=0;bottom=1;right=0;points=[[0,0.5],[1,0.5]];portConstraint=eastwest;" vertex="1" parent="FKqomgGVLj7_TAxLZ9Gf-353">
          <mxGeometry y="30" width="180" height="30" as="geometry" />
        </mxCell>
        <mxCell id="FKqomgGVLj7_TAxLZ9Gf-355" value="PK" style="shape=partialRectangle;html=1;whiteSpace=wrap;connectable=0;fillColor=none;top=0;left=0;bottom=0;right=0;overflow=hidden;" vertex="1" parent="FKqomgGVLj7_TAxLZ9Gf-354">
          <mxGeometry width="40" height="30" as="geometry" />
        </mxCell>
        <mxCell id="FKqomgGVLj7_TAxLZ9Gf-356" value="no" style="shape=partialRectangle;html=1;whiteSpace=wrap;connectable=0;fillColor=none;top=0;left=0;bottom=0;right=0;align=left;spacingLeft=6;overflow=hidden;" vertex="1" parent="FKqomgGVLj7_TAxLZ9Gf-354">
          <mxGeometry x="40" width="140" height="30" as="geometry" />
        </mxCell>
        <mxCell id="FKqomgGVLj7_TAxLZ9Gf-357" value="" style="shape=partialRectangle;html=1;whiteSpace=wrap;collapsible=0;dropTarget=0;pointerEvents=0;fillColor=none;top=0;left=0;bottom=0;right=0;points=[[0,0.5],[1,0.5]];portConstraint=eastwest;" vertex="1" parent="FKqomgGVLj7_TAxLZ9Gf-353">
          <mxGeometry y="60" width="180" height="30" as="geometry" />
        </mxCell>
        <mxCell id="FKqomgGVLj7_TAxLZ9Gf-358" value="FK" style="shape=partialRectangle;html=1;whiteSpace=wrap;connectable=0;fillColor=none;top=0;left=0;bottom=0;right=0;overflow=hidden;" vertex="1" parent="FKqomgGVLj7_TAxLZ9Gf-357">
          <mxGeometry width="40" height="30" as="geometry" />
        </mxCell>
        <mxCell id="FKqomgGVLj7_TAxLZ9Gf-359" value="type" style="shape=partialRectangle;html=1;whiteSpace=wrap;connectable=0;fillColor=none;top=0;left=0;bottom=0;right=0;align=left;spacingLeft=6;overflow=hidden;" vertex="1" parent="FKqomgGVLj7_TAxLZ9Gf-357">
          <mxGeometry x="40" width="140" height="30" as="geometry" />
        </mxCell>
        <mxCell id="FKqomgGVLj7_TAxLZ9Gf-360" value="" style="shape=partialRectangle;html=1;whiteSpace=wrap;collapsible=0;dropTarget=0;pointerEvents=0;fillColor=none;top=0;left=0;bottom=0;right=0;points=[[0,0.5],[1,0.5]];portConstraint=eastwest;" vertex="1" parent="FKqomgGVLj7_TAxLZ9Gf-353">
          <mxGeometry y="90" width="180" height="30" as="geometry" />
        </mxCell>
        <mxCell id="FKqomgGVLj7_TAxLZ9Gf-361" value="" style="shape=partialRectangle;html=1;whiteSpace=wrap;connectable=0;fillColor=none;top=0;left=0;bottom=0;right=0;overflow=hidden;" vertex="1" parent="FKqomgGVLj7_TAxLZ9Gf-360">
          <mxGeometry width="40" height="30" as="geometry" />
        </mxCell>
        <mxCell id="FKqomgGVLj7_TAxLZ9Gf-362" value="name (폴더 이름)" style="shape=partialRectangle;html=1;whiteSpace=wrap;connectable=0;fillColor=none;top=0;left=0;bottom=0;right=0;align=left;spacingLeft=6;overflow=hidden;" vertex="1" parent="FKqomgGVLj7_TAxLZ9Gf-360">
          <mxGeometry x="40" width="140" height="30" as="geometry" />
        </mxCell>
        <mxCell id="FKqomgGVLj7_TAxLZ9Gf-363" value="name " style="shape=table;startSize=30;container=1;collapsible=0;childLayout=tableLayout;fixedRows=1;rowLines=0;fontStyle=1;align=center;" vertex="1" parent="1">
          <mxGeometry x="540" y="280" width="180" height="131" as="geometry" />
        </mxCell>
        <mxCell id="FKqomgGVLj7_TAxLZ9Gf-364" value="" style="shape=partialRectangle;html=1;whiteSpace=wrap;collapsible=0;dropTarget=0;pointerEvents=0;fillColor=none;top=0;left=0;bottom=1;right=0;points=[[0,0.5],[1,0.5]];portConstraint=eastwest;" vertex="1" parent="FKqomgGVLj7_TAxLZ9Gf-363">
          <mxGeometry y="30" width="180" height="30" as="geometry" />
        </mxCell>
        <mxCell id="FKqomgGVLj7_TAxLZ9Gf-365" value="PK" style="shape=partialRectangle;html=1;whiteSpace=wrap;connectable=0;fillColor=none;top=0;left=0;bottom=0;right=0;overflow=hidden;" vertex="1" parent="FKqomgGVLj7_TAxLZ9Gf-364">
          <mxGeometry width="40" height="30" as="geometry" />
        </mxCell>
        <mxCell id="FKqomgGVLj7_TAxLZ9Gf-366" value="no" style="shape=partialRectangle;html=1;whiteSpace=wrap;connectable=0;fillColor=none;top=0;left=0;bottom=0;right=0;align=left;spacingLeft=6;overflow=hidden;" vertex="1" parent="FKqomgGVLj7_TAxLZ9Gf-364">
          <mxGeometry x="40" width="140" height="30" as="geometry" />
        </mxCell>
        <mxCell id="FKqomgGVLj7_TAxLZ9Gf-367" value="" style="shape=partialRectangle;html=1;whiteSpace=wrap;collapsible=0;dropTarget=0;pointerEvents=0;fillColor=none;top=0;left=0;bottom=0;right=0;points=[[0,0.5],[1,0.5]];portConstraint=eastwest;" vertex="1" parent="FKqomgGVLj7_TAxLZ9Gf-363">
          <mxGeometry y="60" width="180" height="30" as="geometry" />
        </mxCell>
        <mxCell id="FKqomgGVLj7_TAxLZ9Gf-368" value="" style="shape=partialRectangle;html=1;whiteSpace=wrap;connectable=0;fillColor=none;top=0;left=0;bottom=0;right=0;overflow=hidden;" vertex="1" parent="FKqomgGVLj7_TAxLZ9Gf-367">
          <mxGeometry width="40" height="30" as="geometry" />
        </mxCell>
        <mxCell id="FKqomgGVLj7_TAxLZ9Gf-369" value="link (숙박, 맛집,...)" style="shape=partialRectangle;html=1;whiteSpace=wrap;connectable=0;fillColor=none;top=0;left=0;bottom=0;right=0;align=left;spacingLeft=6;overflow=hidden;" vertex="1" parent="FKqomgGVLj7_TAxLZ9Gf-367">
          <mxGeometry x="40" width="140" height="30" as="geometry" />
        </mxCell>
        <mxCell id="FKqomgGVLj7_TAxLZ9Gf-370" value="" style="shape=partialRectangle;html=1;whiteSpace=wrap;collapsible=0;dropTarget=0;pointerEvents=0;fillColor=none;top=0;left=0;bottom=0;right=0;points=[[0,0.5],[1,0.5]];portConstraint=eastwest;" vertex="1" parent="FKqomgGVLj7_TAxLZ9Gf-363">
          <mxGeometry y="90" width="180" height="30" as="geometry" />
        </mxCell>
        <mxCell id="FKqomgGVLj7_TAxLZ9Gf-371" value="FK" style="shape=partialRectangle;html=1;whiteSpace=wrap;connectable=0;fillColor=none;top=0;left=0;bottom=0;right=0;overflow=hidden;" vertex="1" parent="FKqomgGVLj7_TAxLZ9Gf-370">
          <mxGeometry width="40" height="30" as="geometry" />
        </mxCell>
        <mxCell id="FKqomgGVLj7_TAxLZ9Gf-372" value="name (폴더 이름)" style="shape=partialRectangle;html=1;whiteSpace=wrap;connectable=0;fillColor=none;top=0;left=0;bottom=0;right=0;align=left;spacingLeft=6;overflow=hidden;" vertex="1" parent="FKqomgGVLj7_TAxLZ9Gf-370">
          <mxGeometry x="40" width="140" height="30" as="geometry" />
        </mxCell>
        <mxCell id="FKqomgGVLj7_TAxLZ9Gf-373" value="User type" style="shape=table;startSize=30;container=1;collapsible=0;childLayout=tableLayout;fixedRows=1;rowLines=0;fontStyle=1;align=center;" vertex="1" parent="1">
          <mxGeometry x="1170" y="507.5" width="230" height="131" as="geometry" />
        </mxCell>
        <mxCell id="FKqomgGVLj7_TAxLZ9Gf-374" value="" style="shape=partialRectangle;html=1;whiteSpace=wrap;collapsible=0;dropTarget=0;pointerEvents=0;fillColor=none;top=0;left=0;bottom=1;right=0;points=[[0,0.5],[1,0.5]];portConstraint=eastwest;" vertex="1" parent="FKqomgGVLj7_TAxLZ9Gf-373">
          <mxGeometry y="30" width="230" height="41" as="geometry" />
        </mxCell>
        <mxCell id="FKqomgGVLj7_TAxLZ9Gf-375" value="PK" style="shape=partialRectangle;html=1;whiteSpace=wrap;connectable=0;fillColor=none;top=0;left=0;bottom=0;right=0;overflow=hidden;" vertex="1" parent="FKqomgGVLj7_TAxLZ9Gf-374">
          <mxGeometry width="51" height="41" as="geometry" />
        </mxCell>
        <mxCell id="FKqomgGVLj7_TAxLZ9Gf-376" value="type&amp;nbsp;&lt;br&gt;(즐겨찾기, 찜하기, 여행 리스트)" style="shape=partialRectangle;html=1;whiteSpace=wrap;connectable=0;fillColor=none;top=0;left=0;bottom=0;right=0;align=left;spacingLeft=6;overflow=hidden;" vertex="1" parent="FKqomgGVLj7_TAxLZ9Gf-374">
          <mxGeometry x="51" width="179" height="41" as="geometry" />
        </mxCell>
        <mxCell id="FKqomgGVLj7_TAxLZ9Gf-377" value="" style="shape=partialRectangle;html=1;whiteSpace=wrap;collapsible=0;dropTarget=0;pointerEvents=0;fillColor=none;top=0;left=0;bottom=0;right=0;points=[[0,0.5],[1,0.5]];portConstraint=eastwest;" vertex="1" parent="FKqomgGVLj7_TAxLZ9Gf-373">
          <mxGeometry y="71" width="230" height="30" as="geometry" />
        </mxCell>
        <mxCell id="FKqomgGVLj7_TAxLZ9Gf-378" value="FK" style="shape=partialRectangle;html=1;whiteSpace=wrap;connectable=0;fillColor=none;top=0;left=0;bottom=0;right=0;overflow=hidden;" vertex="1" parent="FKqomgGVLj7_TAxLZ9Gf-377">
          <mxGeometry width="51" height="30" as="geometry" />
        </mxCell>
        <mxCell id="FKqomgGVLj7_TAxLZ9Gf-379" value="member_no" style="shape=partialRectangle;html=1;whiteSpace=wrap;connectable=0;fillColor=none;top=0;left=0;bottom=0;right=0;align=left;spacingLeft=6;overflow=hidden;" vertex="1" parent="FKqomgGVLj7_TAxLZ9Gf-377">
          <mxGeometry x="51" width="179" height="30" as="geometry" />
        </mxCell>
        <mxCell id="FKqomgGVLj7_TAxLZ9Gf-380" value="type 여행 리스트" style="shape=table;startSize=30;container=1;collapsible=0;childLayout=tableLayout;fixedRows=1;rowLines=0;fontStyle=1;align=center;" vertex="1" parent="1">
          <mxGeometry x="810" y="815" width="180" height="240" as="geometry" />
        </mxCell>
        <mxCell id="FKqomgGVLj7_TAxLZ9Gf-381" value="" style="shape=partialRectangle;html=1;whiteSpace=wrap;collapsible=0;dropTarget=0;pointerEvents=0;fillColor=none;top=0;left=0;bottom=1;right=0;points=[[0,0.5],[1,0.5]];portConstraint=eastwest;" vertex="1" parent="FKqomgGVLj7_TAxLZ9Gf-380">
          <mxGeometry y="30" width="180" height="30" as="geometry" />
        </mxCell>
        <mxCell id="FKqomgGVLj7_TAxLZ9Gf-382" value="PK" style="shape=partialRectangle;html=1;whiteSpace=wrap;connectable=0;fillColor=none;top=0;left=0;bottom=0;right=0;overflow=hidden;" vertex="1" parent="FKqomgGVLj7_TAxLZ9Gf-381">
          <mxGeometry width="40" height="30" as="geometry" />
        </mxCell>
        <mxCell id="FKqomgGVLj7_TAxLZ9Gf-383" value="no" style="shape=partialRectangle;html=1;whiteSpace=wrap;connectable=0;fillColor=none;top=0;left=0;bottom=0;right=0;align=left;spacingLeft=6;overflow=hidden;" vertex="1" parent="FKqomgGVLj7_TAxLZ9Gf-381">
          <mxGeometry x="40" width="140" height="30" as="geometry" />
        </mxCell>
        <mxCell id="FKqomgGVLj7_TAxLZ9Gf-384" value="" style="shape=partialRectangle;html=1;whiteSpace=wrap;collapsible=0;dropTarget=0;pointerEvents=0;fillColor=none;top=0;left=0;bottom=0;right=0;points=[[0,0.5],[1,0.5]];portConstraint=eastwest;" vertex="1" parent="FKqomgGVLj7_TAxLZ9Gf-380">
          <mxGeometry y="60" width="180" height="30" as="geometry" />
        </mxCell>
        <mxCell id="FKqomgGVLj7_TAxLZ9Gf-385" value="FK" style="shape=partialRectangle;html=1;whiteSpace=wrap;connectable=0;fillColor=none;top=0;left=0;bottom=0;right=0;overflow=hidden;" vertex="1" parent="FKqomgGVLj7_TAxLZ9Gf-384">
          <mxGeometry width="40" height="30" as="geometry" />
        </mxCell>
        <mxCell id="FKqomgGVLj7_TAxLZ9Gf-386" value="type (User 테이블)" style="shape=partialRectangle;html=1;whiteSpace=wrap;connectable=0;fillColor=none;top=0;left=0;bottom=0;right=0;align=left;spacingLeft=6;overflow=hidden;" vertex="1" parent="FKqomgGVLj7_TAxLZ9Gf-384">
          <mxGeometry x="40" width="140" height="30" as="geometry" />
        </mxCell>
        <mxCell id="FKqomgGVLj7_TAxLZ9Gf-387" value="" style="shape=partialRectangle;html=1;whiteSpace=wrap;collapsible=0;dropTarget=0;pointerEvents=0;fillColor=none;top=0;left=0;bottom=0;right=0;points=[[0,0.5],[1,0.5]];portConstraint=eastwest;" vertex="1" parent="FKqomgGVLj7_TAxLZ9Gf-380">
          <mxGeometry y="90" width="180" height="30" as="geometry" />
        </mxCell>
        <mxCell id="FKqomgGVLj7_TAxLZ9Gf-388" value="" style="shape=partialRectangle;html=1;whiteSpace=wrap;connectable=0;fillColor=none;top=0;left=0;bottom=0;right=0;overflow=hidden;" vertex="1" parent="FKqomgGVLj7_TAxLZ9Gf-387">
          <mxGeometry width="40" height="30" as="geometry" />
        </mxCell>
        <mxCell id="FKqomgGVLj7_TAxLZ9Gf-389" value="일정" style="shape=partialRectangle;html=1;whiteSpace=wrap;connectable=0;fillColor=none;top=0;left=0;bottom=0;right=0;align=left;spacingLeft=6;overflow=hidden;" vertex="1" parent="FKqomgGVLj7_TAxLZ9Gf-387">
          <mxGeometry x="40" width="140" height="30" as="geometry" />
        </mxCell>
        <mxCell id="FKqomgGVLj7_TAxLZ9Gf-390" value="" style="shape=partialRectangle;html=1;whiteSpace=wrap;collapsible=0;dropTarget=0;pointerEvents=0;fillColor=none;top=0;left=0;bottom=0;right=0;points=[[0,0.5],[1,0.5]];portConstraint=eastwest;" vertex="1" parent="FKqomgGVLj7_TAxLZ9Gf-380">
          <mxGeometry y="120" width="180" height="30" as="geometry" />
        </mxCell>
        <mxCell id="FKqomgGVLj7_TAxLZ9Gf-391" value="" style="shape=partialRectangle;html=1;whiteSpace=wrap;connectable=0;fillColor=none;top=0;left=0;bottom=0;right=0;overflow=hidden;" vertex="1" parent="FKqomgGVLj7_TAxLZ9Gf-390">
          <mxGeometry width="40" height="30" as="geometry" />
        </mxCell>
        <mxCell id="FKqomgGVLj7_TAxLZ9Gf-392" value="file name &lt;br&gt;(일정 하나 당 파일 하나)" style="shape=partialRectangle;html=1;whiteSpace=wrap;connectable=0;fillColor=none;top=0;left=0;bottom=0;right=0;align=left;spacingLeft=6;overflow=hidden;" vertex="1" parent="FKqomgGVLj7_TAxLZ9Gf-390">
          <mxGeometry x="40" width="140" height="30" as="geometry" />
        </mxCell>
        <mxCell id="FKqomgGVLj7_TAxLZ9Gf-393" value="" style="shape=partialRectangle;html=1;whiteSpace=wrap;collapsible=0;dropTarget=0;pointerEvents=0;fillColor=none;top=0;left=0;bottom=0;right=0;points=[[0,0.5],[1,0.5]];portConstraint=eastwest;" vertex="1" parent="FKqomgGVLj7_TAxLZ9Gf-380">
          <mxGeometry y="150" width="180" height="30" as="geometry" />
        </mxCell>
        <mxCell id="FKqomgGVLj7_TAxLZ9Gf-394" value="" style="shape=partialRectangle;html=1;whiteSpace=wrap;connectable=0;fillColor=none;top=0;left=0;bottom=0;right=0;overflow=hidden;" vertex="1" parent="FKqomgGVLj7_TAxLZ9Gf-393">
          <mxGeometry width="40" height="30" as="geometry" />
        </mxCell>
        <mxCell id="FKqomgGVLj7_TAxLZ9Gf-395" value="작성 날짜" style="shape=partialRectangle;html=1;whiteSpace=wrap;connectable=0;fillColor=none;top=0;left=0;bottom=0;right=0;align=left;spacingLeft=6;overflow=hidden;" vertex="1" parent="FKqomgGVLj7_TAxLZ9Gf-393">
          <mxGeometry x="40" width="140" height="30" as="geometry" />
        </mxCell>
        <mxCell id="FKqomgGVLj7_TAxLZ9Gf-396" value="" style="shape=partialRectangle;html=1;whiteSpace=wrap;collapsible=0;dropTarget=0;pointerEvents=0;fillColor=none;top=0;left=0;bottom=0;right=0;points=[[0,0.5],[1,0.5]];portConstraint=eastwest;" vertex="1" parent="FKqomgGVLj7_TAxLZ9Gf-380">
          <mxGeometry y="180" width="180" height="30" as="geometry" />
        </mxCell>
        <mxCell id="FKqomgGVLj7_TAxLZ9Gf-397" value="" style="shape=partialRectangle;html=1;whiteSpace=wrap;connectable=0;fillColor=none;top=0;left=0;bottom=0;right=0;overflow=hidden;" vertex="1" parent="FKqomgGVLj7_TAxLZ9Gf-396">
          <mxGeometry width="40" height="30" as="geometry" />
        </mxCell>
        <mxCell id="FKqomgGVLj7_TAxLZ9Gf-398" value="저장 형식 (파일)" style="shape=partialRectangle;html=1;whiteSpace=wrap;connectable=0;fillColor=none;top=0;left=0;bottom=0;right=0;align=left;spacingLeft=6;overflow=hidden;" vertex="1" parent="FKqomgGVLj7_TAxLZ9Gf-396">
          <mxGeometry x="40" width="140" height="30" as="geometry" />
        </mxCell>
        <mxCell id="FKqomgGVLj7_TAxLZ9Gf-399" value="type 여행 리스트" style="shape=table;startSize=30;container=1;collapsible=0;childLayout=tableLayout;fixedRows=1;rowLines=0;fontStyle=1;align=center;" vertex="1" parent="1">
          <mxGeometry x="540" y="560" width="180" height="130" as="geometry" />
        </mxCell>
        <mxCell id="FKqomgGVLj7_TAxLZ9Gf-400" value="" style="shape=partialRectangle;html=1;whiteSpace=wrap;collapsible=0;dropTarget=0;pointerEvents=0;fillColor=none;top=0;left=0;bottom=1;right=0;points=[[0,0.5],[1,0.5]];portConstraint=eastwest;" vertex="1" parent="FKqomgGVLj7_TAxLZ9Gf-399">
          <mxGeometry y="30" width="180" height="30" as="geometry" />
        </mxCell>
        <mxCell id="FKqomgGVLj7_TAxLZ9Gf-401" value="PK" style="shape=partialRectangle;html=1;whiteSpace=wrap;connectable=0;fillColor=none;top=0;left=0;bottom=0;right=0;overflow=hidden;" vertex="1" parent="FKqomgGVLj7_TAxLZ9Gf-400">
          <mxGeometry width="40" height="30" as="geometry" />
        </mxCell>
        <mxCell id="FKqomgGVLj7_TAxLZ9Gf-402" value="no" style="shape=partialRectangle;html=1;whiteSpace=wrap;connectable=0;fillColor=none;top=0;left=0;bottom=0;right=0;align=left;spacingLeft=6;overflow=hidden;" vertex="1" parent="FKqomgGVLj7_TAxLZ9Gf-400">
          <mxGeometry x="40" width="140" height="30" as="geometry" />
        </mxCell>
        <mxCell id="FKqomgGVLj7_TAxLZ9Gf-403" value="" style="shape=partialRectangle;html=1;whiteSpace=wrap;collapsible=0;dropTarget=0;pointerEvents=0;fillColor=none;top=0;left=0;bottom=0;right=0;points=[[0,0.5],[1,0.5]];portConstraint=eastwest;" vertex="1" parent="FKqomgGVLj7_TAxLZ9Gf-399">
          <mxGeometry y="60" width="180" height="30" as="geometry" />
        </mxCell>
        <mxCell id="FKqomgGVLj7_TAxLZ9Gf-404" value="FK" style="shape=partialRectangle;html=1;whiteSpace=wrap;connectable=0;fillColor=none;top=0;left=0;bottom=0;right=0;overflow=hidden;" vertex="1" parent="FKqomgGVLj7_TAxLZ9Gf-403">
          <mxGeometry width="40" height="30" as="geometry" />
        </mxCell>
        <mxCell id="FKqomgGVLj7_TAxLZ9Gf-405" value="list name" style="shape=partialRectangle;html=1;whiteSpace=wrap;connectable=0;fillColor=none;top=0;left=0;bottom=0;right=0;align=left;spacingLeft=6;overflow=hidden;" vertex="1" parent="FKqomgGVLj7_TAxLZ9Gf-403">
          <mxGeometry x="40" width="140" height="30" as="geometry" />
        </mxCell>
        <mxCell id="FKqomgGVLj7_TAxLZ9Gf-406" value="" style="shape=partialRectangle;html=1;whiteSpace=wrap;collapsible=0;dropTarget=0;pointerEvents=0;fillColor=none;top=0;left=0;bottom=0;right=0;points=[[0,0.5],[1,0.5]];portConstraint=eastwest;" vertex="1" parent="FKqomgGVLj7_TAxLZ9Gf-399">
          <mxGeometry y="90" width="180" height="30" as="geometry" />
        </mxCell>
        <mxCell id="FKqomgGVLj7_TAxLZ9Gf-407" value="" style="shape=partialRectangle;html=1;whiteSpace=wrap;connectable=0;fillColor=none;top=0;left=0;bottom=0;right=0;overflow=hidden;" vertex="1" parent="FKqomgGVLj7_TAxLZ9Gf-406">
          <mxGeometry width="40" height="30" as="geometry" />
        </mxCell>
        <mxCell id="FKqomgGVLj7_TAxLZ9Gf-408" value="" style="shape=partialRectangle;html=1;whiteSpace=wrap;connectable=0;fillColor=none;top=0;left=0;bottom=0;right=0;align=left;spacingLeft=6;overflow=hidden;" vertex="1" parent="FKqomgGVLj7_TAxLZ9Gf-406">
          <mxGeometry x="40" width="140" height="30" as="geometry" />
        </mxCell>
        <mxCell id="FKqomgGVLj7_TAxLZ9Gf-409" value="체크 리스트" style="shape=table;startSize=30;container=1;collapsible=0;childLayout=tableLayout;fixedRows=1;rowLines=0;fontStyle=1;align=center;" vertex="1" parent="1">
          <mxGeometry x="540" y="815" width="180" height="210" as="geometry" />
        </mxCell>
        <mxCell id="FKqomgGVLj7_TAxLZ9Gf-410" value="" style="shape=partialRectangle;html=1;whiteSpace=wrap;collapsible=0;dropTarget=0;pointerEvents=0;fillColor=none;top=0;left=0;bottom=1;right=0;points=[[0,0.5],[1,0.5]];portConstraint=eastwest;" vertex="1" parent="FKqomgGVLj7_TAxLZ9Gf-409">
          <mxGeometry y="30" width="180" height="30" as="geometry" />
        </mxCell>
        <mxCell id="FKqomgGVLj7_TAxLZ9Gf-411" value="PK" style="shape=partialRectangle;html=1;whiteSpace=wrap;connectable=0;fillColor=none;top=0;left=0;bottom=0;right=0;overflow=hidden;" vertex="1" parent="FKqomgGVLj7_TAxLZ9Gf-410">
          <mxGeometry width="40" height="30" as="geometry" />
        </mxCell>
        <mxCell id="FKqomgGVLj7_TAxLZ9Gf-412" value="no" style="shape=partialRectangle;html=1;whiteSpace=wrap;connectable=0;fillColor=none;top=0;left=0;bottom=0;right=0;align=left;spacingLeft=6;overflow=hidden;" vertex="1" parent="FKqomgGVLj7_TAxLZ9Gf-410">
          <mxGeometry x="40" width="140" height="30" as="geometry" />
        </mxCell>
        <mxCell id="FKqomgGVLj7_TAxLZ9Gf-413" value="" style="shape=partialRectangle;html=1;whiteSpace=wrap;collapsible=0;dropTarget=0;pointerEvents=0;fillColor=none;top=0;left=0;bottom=0;right=0;points=[[0,0.5],[1,0.5]];portConstraint=eastwest;" vertex="1" parent="FKqomgGVLj7_TAxLZ9Gf-409">
          <mxGeometry y="60" width="180" height="30" as="geometry" />
        </mxCell>
        <mxCell id="FKqomgGVLj7_TAxLZ9Gf-414" value="FK" style="shape=partialRectangle;html=1;whiteSpace=wrap;connectable=0;fillColor=none;top=0;left=0;bottom=0;right=0;overflow=hidden;" vertex="1" parent="FKqomgGVLj7_TAxLZ9Gf-413">
          <mxGeometry width="40" height="30" as="geometry" />
        </mxCell>
        <mxCell id="FKqomgGVLj7_TAxLZ9Gf-415" value="file name" style="shape=partialRectangle;html=1;whiteSpace=wrap;connectable=0;fillColor=none;top=0;left=0;bottom=0;right=0;align=left;spacingLeft=6;overflow=hidden;" vertex="1" parent="FKqomgGVLj7_TAxLZ9Gf-413">
          <mxGeometry x="40" width="140" height="30" as="geometry" />
        </mxCell>
        <mxCell id="FKqomgGVLj7_TAxLZ9Gf-416" value="" style="shape=partialRectangle;html=1;whiteSpace=wrap;collapsible=0;dropTarget=0;pointerEvents=0;fillColor=none;top=0;left=0;bottom=0;right=0;points=[[0,0.5],[1,0.5]];portConstraint=eastwest;" vertex="1" parent="FKqomgGVLj7_TAxLZ9Gf-409">
          <mxGeometry y="90" width="180" height="30" as="geometry" />
        </mxCell>
        <mxCell id="FKqomgGVLj7_TAxLZ9Gf-417" value="FK" style="shape=partialRectangle;html=1;whiteSpace=wrap;connectable=0;fillColor=none;top=0;left=0;bottom=0;right=0;overflow=hidden;" vertex="1" parent="FKqomgGVLj7_TAxLZ9Gf-416">
          <mxGeometry width="40" height="30" as="geometry" />
        </mxCell>
        <mxCell id="FKqomgGVLj7_TAxLZ9Gf-418" value="지역 번호" style="shape=partialRectangle;html=1;whiteSpace=wrap;connectable=0;fillColor=none;top=0;left=0;bottom=0;right=0;align=left;spacingLeft=6;overflow=hidden;" vertex="1" parent="FKqomgGVLj7_TAxLZ9Gf-416">
          <mxGeometry x="40" width="140" height="30" as="geometry" />
        </mxCell>
        <mxCell id="FKqomgGVLj7_TAxLZ9Gf-419" value="" style="shape=partialRectangle;html=1;whiteSpace=wrap;collapsible=0;dropTarget=0;pointerEvents=0;fillColor=none;top=0;left=0;bottom=0;right=0;points=[[0,0.5],[1,0.5]];portConstraint=eastwest;" vertex="1" parent="FKqomgGVLj7_TAxLZ9Gf-409">
          <mxGeometry y="120" width="180" height="30" as="geometry" />
        </mxCell>
        <mxCell id="FKqomgGVLj7_TAxLZ9Gf-420" value="FK" style="shape=partialRectangle;html=1;whiteSpace=wrap;connectable=0;fillColor=none;top=0;left=0;bottom=0;right=0;overflow=hidden;" vertex="1" parent="FKqomgGVLj7_TAxLZ9Gf-419">
          <mxGeometry width="40" height="30" as="geometry" />
        </mxCell>
        <mxCell id="FKqomgGVLj7_TAxLZ9Gf-421" value="숙박" style="shape=partialRectangle;html=1;whiteSpace=wrap;connectable=0;fillColor=none;top=0;left=0;bottom=0;right=0;align=left;spacingLeft=6;overflow=hidden;" vertex="1" parent="FKqomgGVLj7_TAxLZ9Gf-419">
          <mxGeometry x="40" width="140" height="30" as="geometry" />
        </mxCell>
        <mxCell id="FKqomgGVLj7_TAxLZ9Gf-422" value="" style="shape=partialRectangle;html=1;whiteSpace=wrap;collapsible=0;dropTarget=0;pointerEvents=0;fillColor=none;top=0;left=0;bottom=0;right=0;points=[[0,0.5],[1,0.5]];portConstraint=eastwest;" vertex="1" parent="FKqomgGVLj7_TAxLZ9Gf-409">
          <mxGeometry y="150" width="180" height="30" as="geometry" />
        </mxCell>
        <mxCell id="FKqomgGVLj7_TAxLZ9Gf-423" value="FK" style="shape=partialRectangle;html=1;whiteSpace=wrap;connectable=0;fillColor=none;top=0;left=0;bottom=0;right=0;overflow=hidden;" vertex="1" parent="FKqomgGVLj7_TAxLZ9Gf-422">
          <mxGeometry width="40" height="30" as="geometry" />
        </mxCell>
        <mxCell id="FKqomgGVLj7_TAxLZ9Gf-424" value="테마" style="shape=partialRectangle;html=1;whiteSpace=wrap;connectable=0;fillColor=none;top=0;left=0;bottom=0;right=0;align=left;spacingLeft=6;overflow=hidden;" vertex="1" parent="FKqomgGVLj7_TAxLZ9Gf-422">
          <mxGeometry x="40" width="140" height="30" as="geometry" />
        </mxCell>
        <mxCell id="FKqomgGVLj7_TAxLZ9Gf-425" value="type 모텔" style="shape=table;startSize=30;container=1;collapsible=0;childLayout=tableLayout;fixedRows=1;rowLines=0;fontStyle=1;align=center;" vertex="1" parent="1">
          <mxGeometry x="2640" y="1341" width="180" height="240" as="geometry" />
        </mxCell>
        <mxCell id="FKqomgGVLj7_TAxLZ9Gf-426" value="" style="shape=partialRectangle;html=1;whiteSpace=wrap;collapsible=0;dropTarget=0;pointerEvents=0;fillColor=none;top=0;left=0;bottom=1;right=0;points=[[0,0.5],[1,0.5]];portConstraint=eastwest;" vertex="1" parent="FKqomgGVLj7_TAxLZ9Gf-425">
          <mxGeometry y="30" width="180" height="30" as="geometry" />
        </mxCell>
        <mxCell id="FKqomgGVLj7_TAxLZ9Gf-427" value="PK" style="shape=partialRectangle;html=1;whiteSpace=wrap;connectable=0;fillColor=none;top=0;left=0;bottom=0;right=0;overflow=hidden;" vertex="1" parent="FKqomgGVLj7_TAxLZ9Gf-426">
          <mxGeometry width="40" height="30" as="geometry" />
        </mxCell>
        <mxCell id="FKqomgGVLj7_TAxLZ9Gf-428" value="no" style="shape=partialRectangle;html=1;whiteSpace=wrap;connectable=0;fillColor=none;top=0;left=0;bottom=0;right=0;align=left;spacingLeft=6;overflow=hidden;" vertex="1" parent="FKqomgGVLj7_TAxLZ9Gf-426">
          <mxGeometry x="40" width="140" height="30" as="geometry" />
        </mxCell>
        <mxCell id="FKqomgGVLj7_TAxLZ9Gf-429" value="" style="shape=partialRectangle;html=1;whiteSpace=wrap;collapsible=0;dropTarget=0;pointerEvents=0;fillColor=none;top=0;left=0;bottom=0;right=0;points=[[0,0.5],[1,0.5]];portConstraint=eastwest;" vertex="1" parent="FKqomgGVLj7_TAxLZ9Gf-425">
          <mxGeometry y="60" width="180" height="30" as="geometry" />
        </mxCell>
        <mxCell id="FKqomgGVLj7_TAxLZ9Gf-430" value="" style="shape=partialRectangle;html=1;whiteSpace=wrap;connectable=0;fillColor=none;top=0;left=0;bottom=0;right=0;overflow=hidden;" vertex="1" parent="FKqomgGVLj7_TAxLZ9Gf-429">
          <mxGeometry width="40" height="30" as="geometry" />
        </mxCell>
        <mxCell id="FKqomgGVLj7_TAxLZ9Gf-431" value="이름" style="shape=partialRectangle;html=1;whiteSpace=wrap;connectable=0;fillColor=none;top=0;left=0;bottom=0;right=0;align=left;spacingLeft=6;overflow=hidden;" vertex="1" parent="FKqomgGVLj7_TAxLZ9Gf-429">
          <mxGeometry x="40" width="140" height="30" as="geometry" />
        </mxCell>
        <mxCell id="FKqomgGVLj7_TAxLZ9Gf-432" value="" style="shape=partialRectangle;html=1;whiteSpace=wrap;collapsible=0;dropTarget=0;pointerEvents=0;fillColor=none;top=0;left=0;bottom=0;right=0;points=[[0,0.5],[1,0.5]];portConstraint=eastwest;" vertex="1" parent="FKqomgGVLj7_TAxLZ9Gf-425">
          <mxGeometry y="90" width="180" height="30" as="geometry" />
        </mxCell>
        <mxCell id="FKqomgGVLj7_TAxLZ9Gf-433" value="" style="shape=partialRectangle;html=1;whiteSpace=wrap;connectable=0;fillColor=none;top=0;left=0;bottom=0;right=0;overflow=hidden;" vertex="1" parent="FKqomgGVLj7_TAxLZ9Gf-432">
          <mxGeometry width="40" height="30" as="geometry" />
        </mxCell>
        <mxCell id="FKqomgGVLj7_TAxLZ9Gf-434" value="주소" style="shape=partialRectangle;html=1;whiteSpace=wrap;connectable=0;fillColor=none;top=0;left=0;bottom=0;right=0;align=left;spacingLeft=6;overflow=hidden;" vertex="1" parent="FKqomgGVLj7_TAxLZ9Gf-432">
          <mxGeometry x="40" width="140" height="30" as="geometry" />
        </mxCell>
        <mxCell id="FKqomgGVLj7_TAxLZ9Gf-435" value="" style="shape=partialRectangle;html=1;whiteSpace=wrap;collapsible=0;dropTarget=0;pointerEvents=0;fillColor=none;top=0;left=0;bottom=0;right=0;points=[[0,0.5],[1,0.5]];portConstraint=eastwest;" vertex="1" parent="FKqomgGVLj7_TAxLZ9Gf-425">
          <mxGeometry y="120" width="180" height="30" as="geometry" />
        </mxCell>
        <mxCell id="FKqomgGVLj7_TAxLZ9Gf-436" value="" style="shape=partialRectangle;html=1;whiteSpace=wrap;connectable=0;fillColor=none;top=0;left=0;bottom=0;right=0;overflow=hidden;" vertex="1" parent="FKqomgGVLj7_TAxLZ9Gf-435">
          <mxGeometry width="40" height="30" as="geometry" />
        </mxCell>
        <mxCell id="FKqomgGVLj7_TAxLZ9Gf-437" value="전화번호" style="shape=partialRectangle;html=1;whiteSpace=wrap;connectable=0;fillColor=none;top=0;left=0;bottom=0;right=0;align=left;spacingLeft=6;overflow=hidden;" vertex="1" parent="FKqomgGVLj7_TAxLZ9Gf-435">
          <mxGeometry x="40" width="140" height="30" as="geometry" />
        </mxCell>
        <mxCell id="FKqomgGVLj7_TAxLZ9Gf-438" value="" style="shape=partialRectangle;html=1;whiteSpace=wrap;collapsible=0;dropTarget=0;pointerEvents=0;fillColor=none;top=0;left=0;bottom=0;right=0;points=[[0,0.5],[1,0.5]];portConstraint=eastwest;" vertex="1" parent="FKqomgGVLj7_TAxLZ9Gf-425">
          <mxGeometry y="150" width="180" height="30" as="geometry" />
        </mxCell>
        <mxCell id="FKqomgGVLj7_TAxLZ9Gf-439" value="" style="shape=partialRectangle;html=1;whiteSpace=wrap;connectable=0;fillColor=none;top=0;left=0;bottom=0;right=0;overflow=hidden;" vertex="1" parent="FKqomgGVLj7_TAxLZ9Gf-438">
          <mxGeometry width="40" height="30" as="geometry" />
        </mxCell>
        <mxCell id="FKqomgGVLj7_TAxLZ9Gf-440" value="사이트 링크" style="shape=partialRectangle;html=1;whiteSpace=wrap;connectable=0;fillColor=none;top=0;left=0;bottom=0;right=0;align=left;spacingLeft=6;overflow=hidden;" vertex="1" parent="FKqomgGVLj7_TAxLZ9Gf-438">
          <mxGeometry x="40" width="140" height="30" as="geometry" />
        </mxCell>
        <mxCell id="FKqomgGVLj7_TAxLZ9Gf-441" value="" style="shape=partialRectangle;html=1;whiteSpace=wrap;collapsible=0;dropTarget=0;pointerEvents=0;fillColor=none;top=0;left=0;bottom=0;right=0;points=[[0,0.5],[1,0.5]];portConstraint=eastwest;" vertex="1" parent="FKqomgGVLj7_TAxLZ9Gf-425">
          <mxGeometry y="180" width="180" height="30" as="geometry" />
        </mxCell>
        <mxCell id="FKqomgGVLj7_TAxLZ9Gf-442" value="FK" style="shape=partialRectangle;html=1;whiteSpace=wrap;connectable=0;fillColor=none;top=0;left=0;bottom=0;right=0;overflow=hidden;" vertex="1" parent="FKqomgGVLj7_TAxLZ9Gf-441">
          <mxGeometry width="40" height="30" as="geometry" />
        </mxCell>
        <mxCell id="FKqomgGVLj7_TAxLZ9Gf-443" value="type( 숙소타입, 7개)" style="shape=partialRectangle;html=1;whiteSpace=wrap;connectable=0;fillColor=none;top=0;left=0;bottom=0;right=0;align=left;spacingLeft=6;overflow=hidden;" vertex="1" parent="FKqomgGVLj7_TAxLZ9Gf-441">
          <mxGeometry x="40" width="140" height="30" as="geometry" />
        </mxCell>
        <mxCell id="FKqomgGVLj7_TAxLZ9Gf-444" value="type  ..." style="shape=table;startSize=30;container=1;collapsible=0;childLayout=tableLayout;fixedRows=1;rowLines=0;fontStyle=1;align=center;" vertex="1" parent="1">
          <mxGeometry x="2640" y="1630" width="180" height="240" as="geometry" />
        </mxCell>
        <mxCell id="FKqomgGVLj7_TAxLZ9Gf-445" value="" style="shape=partialRectangle;html=1;whiteSpace=wrap;collapsible=0;dropTarget=0;pointerEvents=0;fillColor=none;top=0;left=0;bottom=1;right=0;points=[[0,0.5],[1,0.5]];portConstraint=eastwest;" vertex="1" parent="FKqomgGVLj7_TAxLZ9Gf-444">
          <mxGeometry y="30" width="180" height="30" as="geometry" />
        </mxCell>
        <mxCell id="FKqomgGVLj7_TAxLZ9Gf-446" value="PK" style="shape=partialRectangle;html=1;whiteSpace=wrap;connectable=0;fillColor=none;top=0;left=0;bottom=0;right=0;overflow=hidden;" vertex="1" parent="FKqomgGVLj7_TAxLZ9Gf-445">
          <mxGeometry width="40" height="30" as="geometry" />
        </mxCell>
        <mxCell id="FKqomgGVLj7_TAxLZ9Gf-447" value="no" style="shape=partialRectangle;html=1;whiteSpace=wrap;connectable=0;fillColor=none;top=0;left=0;bottom=0;right=0;align=left;spacingLeft=6;overflow=hidden;" vertex="1" parent="FKqomgGVLj7_TAxLZ9Gf-445">
          <mxGeometry x="40" width="140" height="30" as="geometry" />
        </mxCell>
        <mxCell id="FKqomgGVLj7_TAxLZ9Gf-448" value="" style="shape=partialRectangle;html=1;whiteSpace=wrap;collapsible=0;dropTarget=0;pointerEvents=0;fillColor=none;top=0;left=0;bottom=0;right=0;points=[[0,0.5],[1,0.5]];portConstraint=eastwest;" vertex="1" parent="FKqomgGVLj7_TAxLZ9Gf-444">
          <mxGeometry y="60" width="180" height="30" as="geometry" />
        </mxCell>
        <mxCell id="FKqomgGVLj7_TAxLZ9Gf-449" value="" style="shape=partialRectangle;html=1;whiteSpace=wrap;connectable=0;fillColor=none;top=0;left=0;bottom=0;right=0;overflow=hidden;" vertex="1" parent="FKqomgGVLj7_TAxLZ9Gf-448">
          <mxGeometry width="40" height="30" as="geometry" />
        </mxCell>
        <mxCell id="FKqomgGVLj7_TAxLZ9Gf-450" value="이름" style="shape=partialRectangle;html=1;whiteSpace=wrap;connectable=0;fillColor=none;top=0;left=0;bottom=0;right=0;align=left;spacingLeft=6;overflow=hidden;" vertex="1" parent="FKqomgGVLj7_TAxLZ9Gf-448">
          <mxGeometry x="40" width="140" height="30" as="geometry" />
        </mxCell>
        <mxCell id="FKqomgGVLj7_TAxLZ9Gf-451" value="" style="shape=partialRectangle;html=1;whiteSpace=wrap;collapsible=0;dropTarget=0;pointerEvents=0;fillColor=none;top=0;left=0;bottom=0;right=0;points=[[0,0.5],[1,0.5]];portConstraint=eastwest;" vertex="1" parent="FKqomgGVLj7_TAxLZ9Gf-444">
          <mxGeometry y="90" width="180" height="30" as="geometry" />
        </mxCell>
        <mxCell id="FKqomgGVLj7_TAxLZ9Gf-452" value="" style="shape=partialRectangle;html=1;whiteSpace=wrap;connectable=0;fillColor=none;top=0;left=0;bottom=0;right=0;overflow=hidden;" vertex="1" parent="FKqomgGVLj7_TAxLZ9Gf-451">
          <mxGeometry width="40" height="30" as="geometry" />
        </mxCell>
        <mxCell id="FKqomgGVLj7_TAxLZ9Gf-453" value="주소" style="shape=partialRectangle;html=1;whiteSpace=wrap;connectable=0;fillColor=none;top=0;left=0;bottom=0;right=0;align=left;spacingLeft=6;overflow=hidden;" vertex="1" parent="FKqomgGVLj7_TAxLZ9Gf-451">
          <mxGeometry x="40" width="140" height="30" as="geometry" />
        </mxCell>
        <mxCell id="FKqomgGVLj7_TAxLZ9Gf-454" value="" style="shape=partialRectangle;html=1;whiteSpace=wrap;collapsible=0;dropTarget=0;pointerEvents=0;fillColor=none;top=0;left=0;bottom=0;right=0;points=[[0,0.5],[1,0.5]];portConstraint=eastwest;" vertex="1" parent="FKqomgGVLj7_TAxLZ9Gf-444">
          <mxGeometry y="120" width="180" height="30" as="geometry" />
        </mxCell>
        <mxCell id="FKqomgGVLj7_TAxLZ9Gf-455" value="" style="shape=partialRectangle;html=1;whiteSpace=wrap;connectable=0;fillColor=none;top=0;left=0;bottom=0;right=0;overflow=hidden;" vertex="1" parent="FKqomgGVLj7_TAxLZ9Gf-454">
          <mxGeometry width="40" height="30" as="geometry" />
        </mxCell>
        <mxCell id="FKqomgGVLj7_TAxLZ9Gf-456" value="전화번호" style="shape=partialRectangle;html=1;whiteSpace=wrap;connectable=0;fillColor=none;top=0;left=0;bottom=0;right=0;align=left;spacingLeft=6;overflow=hidden;" vertex="1" parent="FKqomgGVLj7_TAxLZ9Gf-454">
          <mxGeometry x="40" width="140" height="30" as="geometry" />
        </mxCell>
        <mxCell id="FKqomgGVLj7_TAxLZ9Gf-457" value="" style="shape=partialRectangle;html=1;whiteSpace=wrap;collapsible=0;dropTarget=0;pointerEvents=0;fillColor=none;top=0;left=0;bottom=0;right=0;points=[[0,0.5],[1,0.5]];portConstraint=eastwest;" vertex="1" parent="FKqomgGVLj7_TAxLZ9Gf-444">
          <mxGeometry y="150" width="180" height="30" as="geometry" />
        </mxCell>
        <mxCell id="FKqomgGVLj7_TAxLZ9Gf-458" value="" style="shape=partialRectangle;html=1;whiteSpace=wrap;connectable=0;fillColor=none;top=0;left=0;bottom=0;right=0;overflow=hidden;" vertex="1" parent="FKqomgGVLj7_TAxLZ9Gf-457">
          <mxGeometry width="40" height="30" as="geometry" />
        </mxCell>
        <mxCell id="FKqomgGVLj7_TAxLZ9Gf-459" value="사이트 링크" style="shape=partialRectangle;html=1;whiteSpace=wrap;connectable=0;fillColor=none;top=0;left=0;bottom=0;right=0;align=left;spacingLeft=6;overflow=hidden;" vertex="1" parent="FKqomgGVLj7_TAxLZ9Gf-457">
          <mxGeometry x="40" width="140" height="30" as="geometry" />
        </mxCell>
        <mxCell id="FKqomgGVLj7_TAxLZ9Gf-460" value="" style="shape=partialRectangle;html=1;whiteSpace=wrap;collapsible=0;dropTarget=0;pointerEvents=0;fillColor=none;top=0;left=0;bottom=0;right=0;points=[[0,0.5],[1,0.5]];portConstraint=eastwest;" vertex="1" parent="FKqomgGVLj7_TAxLZ9Gf-444">
          <mxGeometry y="180" width="180" height="30" as="geometry" />
        </mxCell>
        <mxCell id="FKqomgGVLj7_TAxLZ9Gf-461" value="FK" style="shape=partialRectangle;html=1;whiteSpace=wrap;connectable=0;fillColor=none;top=0;left=0;bottom=0;right=0;overflow=hidden;" vertex="1" parent="FKqomgGVLj7_TAxLZ9Gf-460">
          <mxGeometry width="40" height="30" as="geometry" />
        </mxCell>
        <mxCell id="FKqomgGVLj7_TAxLZ9Gf-462" value="type( 숙소타입, 7개)" style="shape=partialRectangle;html=1;whiteSpace=wrap;connectable=0;fillColor=none;top=0;left=0;bottom=0;right=0;align=left;spacingLeft=6;overflow=hidden;" vertex="1" parent="FKqomgGVLj7_TAxLZ9Gf-460">
          <mxGeometry x="40" width="140" height="30" as="geometry" />
        </mxCell>
      </root>
    </mxGraphModel>
  </diagram>
  <diagram id="R2cSKrjcCN7heBSrfv7h" name="Page-2">
    <mxGraphModel dx="460" dy="705" grid="1" gridSize="10" guides="1" tooltips="1" connect="1" arrows="1" fold="1" page="1" pageScale="1" pageWidth="3300" pageHeight="4681" math="0" shadow="0">
      <root>
        <mxCell id="JkWhG0CLtUNNQ7WrBs3b-0" />
        <mxCell id="JkWhG0CLtUNNQ7WrBs3b-1" parent="JkWhG0CLtUNNQ7WrBs3b-0" />
      </root>
    </mxGraphModel>
  </diagram>
</mxfile>
